<svg id="_2022_AUTUMN" data-name="2022 AUTUMN" xmlns="http://www.w3.org/2000/svg" xmlns:xlink="http://www.w3.org/1999/xlink" width="340" height="36.958" viewBox="0 0 340 36.958">
  <defs>
    <clipPath id="clip-path">
      <rect id="長方形_28" data-name="長方形 28" width="340" height="36.958" fill="#fff"/>
    </clipPath>
  </defs>
  <g id="グループ_1214" data-name="グループ 1214" clip-path="url(#clip-path)">
    <path id="パス_1067" data-name="パス 1067" d="M30.033,35.99H1.442V26.357l.188-.148L15.1,15.431a5.717,5.717,0,0,0,1.238-1.274,2.282,2.282,0,0,0,.441-1.306,2.028,2.028,0,0,0-.485-1.362,1.848,1.848,0,0,0-1.514-.541,2.348,2.348,0,0,0-1.919.925,4.492,4.492,0,0,0-.9,2.684l-.028.533L0,13.724l.048-.493a14.668,14.668,0,0,1,1.8-5.916A13.846,13.846,0,0,1,5.459,3.178,14.734,14.734,0,0,1,10.286.763,20.232,20.232,0,0,1,20.832.639a14.12,14.12,0,0,1,4.562,2.019,10.812,10.812,0,0,1,3.272,3.6,10.707,10.707,0,0,1,1.27,5.343,12.035,12.035,0,0,1-.581,3.889,10.911,10.911,0,0,1-1.562,3,14.957,14.957,0,0,1-2.187,2.339c-.805.689-1.65,1.346-2.515,1.951L19.37,25.424H30.033Zm-27.589-1H29.031V26.425H16.238l6.276-4.466c.841-.589,1.658-1.23,2.439-1.895a13.523,13.523,0,0,0,2.039-2.183,9.9,9.9,0,0,0,1.418-2.72,11,11,0,0,0,.525-3.561A9.7,9.7,0,0,0,27.8,6.751a9.771,9.771,0,0,0-2.972-3.268,13.225,13.225,0,0,0-4.238-1.875,19.26,19.26,0,0,0-10.022.116,13.683,13.683,0,0,0-4.5,2.251A12.83,12.83,0,0,0,2.712,7.816a13.313,13.313,0,0,0-1.606,5.027L11,13.977a5.184,5.184,0,0,1,1.081-2.744,3.351,3.351,0,0,1,2.692-1.286,2.8,2.8,0,0,1,2.283.9,3.048,3.048,0,0,1,.717,2,3.262,3.262,0,0,1-.617,1.871,6.5,6.5,0,0,1-1.45,1.5L2.443,26.842Z" transform="translate(0 0.004)" fill="#fff"/>
    <path id="パス_1068" data-name="パス 1068" d="M23.9,36.958a17.407,17.407,0,0,1-5.644-.845,13.506,13.506,0,0,1-4.194-2.3,13.668,13.668,0,0,1-2.92-3.349,18.144,18.144,0,0,1-1.826-3.953,23.134,23.134,0,0,1-.933-4.174,30.384,30.384,0,0,1,0-8.059,22.162,22.162,0,0,1,.933-4.13,17.552,17.552,0,0,1,1.83-3.861,13.25,13.25,0,0,1,2.924-3.244A13.551,13.551,0,0,1,18.258.821,17.741,17.741,0,0,1,23.9,0a15.9,15.9,0,0,1,7.939,1.774,13.728,13.728,0,0,1,4.835,4.49,17.055,17.055,0,0,1,2.375,5.94,31.241,31.241,0,0,1,.637,6.08,33.11,33.11,0,0,1-.268,4.029,23.384,23.384,0,0,1-.933,4.2,18.838,18.838,0,0,1-1.8,3.953,13.1,13.1,0,0,1-2.924,3.349,13.761,13.761,0,0,1-4.214,2.3,17.441,17.441,0,0,1-5.644.845M23.9,1a16.8,16.8,0,0,0-5.319.765,12.624,12.624,0,0,0-3.885,2.059,12.211,12.211,0,0,0-2.7,3,16.382,16.382,0,0,0-1.722,3.633,20.977,20.977,0,0,0-.893,3.945,30.84,30.84,0,0,0-.26,3.877,31.1,31.1,0,0,0,.26,3.929,21.9,21.9,0,0,0,.893,3.993,17.26,17.26,0,0,0,1.726,3.737,12.755,12.755,0,0,0,2.708,3.1,12.338,12.338,0,0,0,3.881,2.123,16.278,16.278,0,0,0,5.315.793,16.312,16.312,0,0,0,5.315-.793,12.8,12.8,0,0,0,3.909-2.123,12.193,12.193,0,0,0,2.7-3.092,18.012,18.012,0,0,0,1.706-3.741,22.492,22.492,0,0,0,.893-4.017,31.929,31.929,0,0,0,.26-3.905,30.441,30.441,0,0,0-.617-5.884,16.114,16.114,0,0,0-2.235-5.6,12.827,12.827,0,0,0-4.49-4.158A14.95,14.95,0,0,0,23.9,1m0,26a2.725,2.725,0,0,1-2.1-.905,5.786,5.786,0,0,1-1.162-2.135,13.369,13.369,0,0,1-.553-2.772c-.1-.993-.144-1.971-.144-2.908,0-.9.048-1.846.144-2.816a12.789,12.789,0,0,1,.553-2.676,5.531,5.531,0,0,1,1.17-2.055A2.738,2.738,0,0,1,23.9,9.853a2.826,2.826,0,0,1,2.115.877A5.149,5.149,0,0,1,27.186,12.8a13.865,13.865,0,0,1,.525,2.668,27.5,27.5,0,0,1,.148,2.816,29.1,29.1,0,0,1-.148,2.908,14.792,14.792,0,0,1-.525,2.764,5.324,5.324,0,0,1-1.17,2.147A2.8,2.8,0,0,1,23.9,27m0-16.15a1.769,1.769,0,0,0-1.366.565,4.612,4.612,0,0,0-.949,1.686,11.579,11.579,0,0,0-.5,2.467,26.521,26.521,0,0,0-.14,2.712c0,.9.044,1.846.14,2.816a12.482,12.482,0,0,0,.509,2.559,4.714,4.714,0,0,0,.953,1.766,1.894,1.894,0,0,0,2.748-.008,4.345,4.345,0,0,0,.941-1.75,13.419,13.419,0,0,0,.485-2.567c.1-.969.144-1.915.144-2.816a26.554,26.554,0,0,0-.144-2.712,12.693,12.693,0,0,0-.481-2.471,4.155,4.155,0,0,0-.941-1.674,1.84,1.84,0,0,0-1.394-.573" transform="translate(24.38 0.002)" fill="#fff"/>
    <path id="パス_1069" data-name="パス 1069" d="M46.353,35.99H17.762V26.357l.188-.148L31.416,15.431a5.717,5.717,0,0,0,1.238-1.274,2.282,2.282,0,0,0,.441-1.306,2.028,2.028,0,0,0-.485-1.362,1.848,1.848,0,0,0-1.514-.541,2.348,2.348,0,0,0-1.919.925,4.492,4.492,0,0,0-.9,2.684l-.028.533L16.32,13.724l.048-.493a14.668,14.668,0,0,1,1.8-5.916,13.846,13.846,0,0,1,3.613-4.138A14.734,14.734,0,0,1,26.606.763,20.232,20.232,0,0,1,37.152.639a14.12,14.12,0,0,1,4.562,2.019,10.812,10.812,0,0,1,3.272,3.6,10.707,10.707,0,0,1,1.27,5.343,12.035,12.035,0,0,1-.581,3.889,10.911,10.911,0,0,1-1.562,3,14.957,14.957,0,0,1-2.187,2.339c-.805.689-1.65,1.346-2.515,1.951L35.69,25.424H46.353Zm-27.589-1H45.351V26.425H32.558l6.276-4.466c.841-.589,1.658-1.23,2.439-1.895a13.522,13.522,0,0,0,2.039-2.183,9.9,9.9,0,0,0,1.418-2.72,11,11,0,0,0,.525-3.561,9.7,9.7,0,0,0-1.138-4.851,9.771,9.771,0,0,0-2.972-3.268,13.225,13.225,0,0,0-4.238-1.875,19.26,19.26,0,0,0-10.022.116,13.683,13.683,0,0,0-4.5,2.251,12.83,12.83,0,0,0-3.357,3.841,13.313,13.313,0,0,0-1.606,5.027l9.9,1.134A5.184,5.184,0,0,1,28.4,11.233,3.351,3.351,0,0,1,31.1,9.947a2.8,2.8,0,0,1,2.283.9,3.048,3.048,0,0,1,.717,2,3.262,3.262,0,0,1-.617,1.871,6.5,6.5,0,0,1-1.45,1.5L18.763,26.842Z" transform="translate(49.048 0.004)" fill="#fff"/>
    <path id="パス_1070" data-name="パス 1070" d="M54.585,35.99H25.994V26.357l.188-.148L39.648,15.431a5.717,5.717,0,0,0,1.238-1.274,2.282,2.282,0,0,0,.441-1.306,2.028,2.028,0,0,0-.485-1.362,1.848,1.848,0,0,0-1.514-.541,2.348,2.348,0,0,0-1.919.925,4.492,4.492,0,0,0-.9,2.684l-.028.533L24.552,13.724l.048-.493a14.669,14.669,0,0,1,1.8-5.916,13.846,13.846,0,0,1,3.613-4.138A14.734,14.734,0,0,1,34.838.763,20.231,20.231,0,0,1,45.384.639a14.12,14.12,0,0,1,4.562,2.019,10.811,10.811,0,0,1,3.272,3.6,10.707,10.707,0,0,1,1.27,5.343,12.036,12.036,0,0,1-.581,3.889,10.911,10.911,0,0,1-1.562,3,14.957,14.957,0,0,1-2.187,2.339c-.805.689-1.65,1.346-2.515,1.951l-3.721,2.648H54.585ZM27,34.989H53.583V26.425H40.79l6.276-4.466c.841-.589,1.658-1.23,2.439-1.895a13.523,13.523,0,0,0,2.039-2.183,9.9,9.9,0,0,0,1.418-2.72,11,11,0,0,0,.525-3.561A9.7,9.7,0,0,0,52.35,6.751a9.771,9.771,0,0,0-2.972-3.268A13.225,13.225,0,0,0,45.14,1.608a19.26,19.26,0,0,0-10.022.116,13.683,13.683,0,0,0-4.5,2.251,12.83,12.83,0,0,0-3.357,3.841,13.312,13.312,0,0,0-1.606,5.027l9.9,1.134a5.184,5.184,0,0,1,1.081-2.744,3.351,3.351,0,0,1,2.692-1.286,2.8,2.8,0,0,1,2.283.9,3.048,3.048,0,0,1,.717,2,3.262,3.262,0,0,1-.617,1.871,6.5,6.5,0,0,1-1.45,1.5L27,26.842Z" transform="translate(73.789 0.004)" fill="#fff"/>
    <path id="パス_1071" data-name="パス 1071" d="M74.733,35.272H61.2l-1.778-5h-10.1l-1.682,5H34.43L48.233.241H61.074Zm-12.829-1H73.267L60.393,1.242H48.914L35.9,34.271H46.915l1.682-5H60.129ZM57.914,21.526H51l3.485-10.518Zm-5.523-1h4.146l-2.055-6.309Z" transform="translate(103.477 0.726)" fill="#fff"/>
    <path id="パス_1072" data-name="パス 1072" d="M59.489,36.233A20.365,20.365,0,0,1,52.371,35.1a14.408,14.408,0,0,1-5.1-3.136,12.608,12.608,0,0,1-3.052-4.73,16.787,16.787,0,0,1-.993-5.82V.24H55.664V20.159a5.232,5.232,0,0,0,1.057,3.5,4.262,4.262,0,0,0,5.924,0,5.253,5.253,0,0,0,1.053-3.5V.24H76.091V21.409a15.833,15.833,0,0,1-1.069,5.832,13.1,13.1,0,0,1-3.172,4.722,14.874,14.874,0,0,1-5.2,3.132,20.774,20.774,0,0,1-7.166,1.138M44.224,1.241V21.409a15.891,15.891,0,0,0,.929,5.475,11.593,11.593,0,0,0,2.816,4.354,13.408,13.408,0,0,0,4.75,2.92,19.455,19.455,0,0,0,6.769,1.073,19.875,19.875,0,0,0,6.821-1.073,13.833,13.833,0,0,0,4.851-2.924,12.12,12.12,0,0,0,2.932-4.362,14.863,14.863,0,0,0,1-5.463V1.241H64.7V20.159A6.169,6.169,0,0,1,63.4,24.3a5.241,5.241,0,0,1-7.442,0,6.169,6.169,0,0,1-1.3-4.146V1.241Z" transform="translate(129.903 0.723)" fill="#fff"/>
    <path id="パス_1073" data-name="パス 1073" d="M72,35.271H59.554V10.9H51.191V.24H80.358V10.9H72Zm-11.439-1H70.994V9.9h8.363V1.241H52.192V9.9h8.363Z" transform="translate(153.85 0.723)" fill="#fff"/>
    <path id="パス_1074" data-name="パス 1074" d="M74.489,36.233A20.365,20.365,0,0,1,67.371,35.1a14.408,14.408,0,0,1-5.1-3.136,12.608,12.608,0,0,1-3.052-4.73,16.787,16.787,0,0,1-.993-5.82V.24H70.664V20.159a5.232,5.232,0,0,0,1.057,3.5,4.262,4.262,0,0,0,5.924,0,5.253,5.253,0,0,0,1.053-3.5V.24H91.091V21.409a15.834,15.834,0,0,1-1.069,5.832,13.1,13.1,0,0,1-3.172,4.722,14.874,14.874,0,0,1-5.2,3.132,20.774,20.774,0,0,1-7.166,1.138M59.224,1.241V21.409a15.891,15.891,0,0,0,.929,5.475,11.593,11.593,0,0,0,2.816,4.354,13.408,13.408,0,0,0,4.75,2.92,19.455,19.455,0,0,0,6.769,1.073,19.875,19.875,0,0,0,6.821-1.073,13.832,13.832,0,0,0,4.851-2.924,12.12,12.12,0,0,0,2.932-4.362,14.863,14.863,0,0,0,1-5.463V1.241H79.7V20.159A6.169,6.169,0,0,1,78.4,24.3a5.241,5.241,0,0,1-7.442,0,6.169,6.169,0,0,1-1.3-4.146V1.241Z" transform="translate(174.985 0.723)" fill="#fff"/>
    <path id="パス_1075" data-name="パス 1075" d="M109.356,35.271H97.2l.3-17.323L91.773,35.271h-8.8L77.421,18.2l.469,17.075H66.2V.24H82.027l5.9,17.528L93.034.24h16.322Zm-11.139-1h10.138V1.241H93.787L88.444,19.554h-.977L81.31,1.241H67.2V34.27H76.86l-.529-19.226h1.118L83.7,34.27h7.35l6.365-19.242,1.138.184Z" transform="translate(198.965 0.723)" fill="#fff"/>
    <path id="パス_1076" data-name="パス 1076" d="M109.4,35.271H96.933L88.157,20.139l.449,15.132H76.726V.24H88.914l9.056,16.1L97.522.24H109.4Zm-11.892-1H108.4V1.241H98.552L99.032,18.5h-1L88.326,1.241h-10.6V34.27h9.845l-.481-16.246h1Z" transform="translate(230.594 0.723)" fill="#fff"/>
  </g>
</svg>
