<?xml version="1.0" encoding="UTF-8"?><svg xmlns="http://www.w3.org/2000/svg" viewBox="0 0 295 87.62"><defs><style>.catchcopy_sp{fill:#fff;}</style></defs><path class="catchcopy_sp" d="M17.35,12.59c-.99,.77-2.03,1.49-3.11,2.14,1.47,.73,3.04,1.25,4.65,1.53l-1.75,2.36c-.07,.14-.22,.22-.37,.22-.09,0-.17,0-.26-.04-1.84-.5-3.56-1.34-5.09-2.48-.61-.48-1.17-1.02-1.67-1.61l-.12,1.97c-.02,.24-.12,.32-.33,.37-2.46,.57-5.27,1.1-8.23,1.49l-.17-.06-.9-2.51,.14-.18c.83-.06,1.61-.12,2.38-.2V4.85l-.06-2.54,.14-.12,2.61,.06h2.52V.28l.16-.16h2.71l.14,.14V2.26h2.44l2.57-.06,.16,.16-.06,2.4v3.65l.06,2.61-.04,.04,1.53,1.34-.04,.2ZM12.93,4.54H5.34v1.04h7.58v-1.04Zm-7.58,4.28h7.58v-1.08H5.34v1.08Zm0,6.47c1.43-.18,2.87-.43,4.28-.73-.84-1.04-1.51-2.2-1.98-3.46h-2.3v4.19Zm5.29-4.19c.41,.75,.92,1.44,1.51,2.04,.89-.61,1.73-1.28,2.52-2.01l-1.3-.04h-2.73Z"/><path class="catchcopy_sp" d="M22.67,2.85l2.77,.1,.14,.14c-.18,2.18-.23,4.13-.23,5.27-.03,1.31,.12,2.62,.45,3.89,.22,.77,.47,1.34,.9,1.34,.53,0,1.2-1.06,1.65-2.87l1.97,2.48c.13,.13,.15,.33,.06,.49-.79,2.05-2.06,3.52-3.66,3.52-1.28,0-2.4-.9-3.18-2.5-.81-1.93-1.2-4.02-1.14-6.11,0-1.59,.04-3.48,.14-5.62l.14-.11Zm9.32,3.42l1.88-1.51,.22-.04c2.3,1.58,4.1,3.78,5.21,6.35l-.06,.18-2.5,1.55-.2-.06c-.87-2.51-2.48-4.7-4.6-6.29l.05-.18Z"/><path class="catchcopy_sp" d="M51.27,6.46c0,.32,0,.73-.02,1.02,.94-.72,1.81-1.53,2.62-2.4h-7.8l-3.4,.06-.14-.16V2.41l.18-.12,3.32,.06h8.74l1.97-.1,1.38,1.85c.06,.08,.09,.17,.1,.27,0,.14-.06,.27-.16,.37-1.34,1.56-2.78,3.03-4.32,4.4-.31,.27-.41,.27-.71,.08l-1.81-1.21c-.2,4.22-1.32,7.01-4.7,9.51-.1,.08-.22,.13-.35,.14-.16-.02-.3-.07-.43-.16l-2.61-1.34c4.11-2.36,4.93-4.87,4.85-9.69l.14-.16h3.03l.14,.14Z"/><path class="catchcopy_sp" d="M73.87,11.14h-8.79l-2.93,.06-.14-.16v-2.81l.17-.12,2.81,.06h8.76l3.03-.06,.16,.14v2.79l-.14,.16-2.95-.06Z"/><path class="catchcopy_sp" d="M84.64,8.96l-2.97,.06-.14-.16v-2.5l.16-.14,2.93,.06h9.27l2.77-.06,.16,.14v2.5l-.14,.16-2.79-.06h-2.73c-.11,2.68-1.24,5.22-3.17,7.1-.68,.61-1.42,1.15-2.22,1.59-.1,.07-.21,.11-.33,.12-.15-.03-.3-.1-.41-.2l-2.5-1.55c3.1-.99,5.25-3.8,5.4-7.06h-3.29Zm7.27-4.34h-5.44l-2.61,.06-.14-.16V1.98l.18-.12,2.42,.06h5.58l2.67-.06,.16,.14v2.52l-.14,.16-2.68-.06Z"/><path class="catchcopy_sp" d="M109.02,12.97l.08,4.48h-2.93l.08-4.38v-1.71c-1.13,.79-2.3,1.52-3.5,2.18-.29,.14-.33,.12-.55-.08l-1.86-1.61c3.52-1.57,6.65-3.89,9.18-6.8l.2-.02,2.1,1.49,.02,.18c-1.02,1.04-1.96,1.89-2.81,2.61v3.66Z"/><path class="catchcopy_sp" d="M130.37,16.43c-1.31-1.68-2.77-3.24-4.36-4.66-1.93,2.04-4.21,3.71-6.74,4.93-.13,.08-.28,.12-.43,.14-.12-.01-.23-.06-.31-.14l-2.32-1.79c4.52-2.1,8.47-5.07,10.28-9.16h-4.68l-2.93,.06-.14-.16V2.99l.18-.12,2.95,.06h5.56l2-.1,1.2,1.18c.14,.14,.22,.24,.22,.35-.02,.17-.08,.33-.18,.47-.8,1.57-1.71,3.09-2.71,4.54,1.78,1.43,3.45,3,4.97,4.7l-.02,.22-2.32,2.16-.21-.02Z"/><path class="catchcopy_sp" d="M143.78,10.02l.1,7.51h-3.42l.1-7.55V1.51l.15-.14h2.91l.16,.16v6.56l1.69-1.89,.19-.02c1.58,.84,3.06,1.85,4.42,3.01l-.02,.19-1.91,2.38-.2,.02c-1.27-1.19-2.68-2.22-4.19-3.09v1.32Z"/><path class="catchcopy_sp" d="M161.08,16c.01,1.54-1.23,2.8-2.77,2.81-1.54,.01-2.8-1.23-2.81-2.77-.01-1.54,1.23-2.8,2.77-2.81,0,0,.01,0,.02,0,1.51-.03,2.76,1.17,2.79,2.68,0,.03,0,.06,0,.09m-4.42,0c0,.9,.73,1.63,1.63,1.63,.9,0,1.63-.73,1.63-1.63,0-.9-.73-1.63-1.63-1.63-.88-.02-1.61,.68-1.63,1.57,0,.02,0,.04,0,.06"/><path class="catchcopy_sp" d="M193.52,12.59c-.99,.77-2.03,1.49-3.11,2.14,1.47,.73,3.04,1.25,4.66,1.53l-1.75,2.36c-.07,.14-.22,.22-.37,.22-.09,0-.17,0-.26-.04-1.84-.5-3.56-1.34-5.09-2.48-.61-.48-1.17-1.02-1.67-1.61l-.12,1.97c-.02,.24-.12,.32-.33,.37-2.46,.57-5.27,1.1-8.23,1.49l-.18-.06-.9-2.52,.14-.18c.83-.06,1.61-.12,2.38-.2V4.85l-.06-2.54,.14-.12,2.61,.06h2.52V.28l.16-.16h2.71l.14,.14V2.26h2.44l2.57-.06,.16,.16-.06,2.4v3.65l.06,2.61-.04,.04,1.53,1.34-.04,.2Zm-4.42-8.06h-7.58v1.04h7.58v-1.04Zm-7.58,4.28h7.58v-1.08h-7.58v1.08Zm0,6.47c1.43-.18,2.87-.43,4.29-.73-.84-1.04-1.51-2.2-1.98-3.46h-2.3v4.19Zm5.29-4.19c.41,.75,.92,1.44,1.51,2.04,.89-.61,1.73-1.28,2.51-2.01l-1.3-.04h-2.73Z"/><path class="catchcopy_sp" d="M199.23,2.85l2.77,.1,.14,.14c-.18,2.18-.24,4.13-.24,5.27-.03,1.31,.12,2.62,.45,3.89,.22,.77,.47,1.34,.9,1.34,.53,0,1.2-1.06,1.65-2.87l1.96,2.48c.13,.13,.15,.33,.06,.49-.79,2.05-2.06,3.52-3.66,3.52-1.28,0-2.4-.9-3.18-2.5-.81-1.93-1.2-4.02-1.14-6.11,0-1.59,.04-3.48,.14-5.62l.14-.11Zm9.32,3.42l1.88-1.51,.22-.04c2.3,1.58,4.1,3.78,5.21,6.35l-.06,.18-2.5,1.55-.2-.06c-.87-2.51-2.48-4.7-4.6-6.29l.05-.18Z"/><path class="catchcopy_sp" d="M226.42,.18l.14-.16h2.69l.14,.14v1.85h3.81l2.67-.04,.14,.12v2.08l-.14,.14-2.67-.06h-.3c-.19,.69-.42,1.36-.68,2.02h2.04l2.77-.04,.14,.12v2.12l-.14,.14-2.78-.06h-12.65l-2.77,.06-.14-.16v-2.12l.16-.1,2.75,.04h1.92c-.16-.69-.37-1.37-.63-2.02h-.2l-2.65,.06-.14-.16V2.06l.16-.1,2.64,.04h3.71V.18Zm-2.14,17.78v.89h-2.79l.1-4.56v-2.46l-.06-2.28,.12-.14,2.71,.06h7.17l2.71-.06,.14,.14-.06,2.28v2.53l.1,4.4h-2.87v-.8h-7.28Zm7.27-6.33h-7.27v.98h7.27v-.98Zm0,3.14h-7.27v1.02h7.27v-1.02Zm-5.74-10.53c.24,.67,.47,1.34,.67,2.02h2.81c.26-.66,.48-1.34,.67-2.02h-4.15Z"/><path class="catchcopy_sp" d="M248.16,15.48c-1.84,1.34-3.88,2.37-6.05,3.06-.07,.03-.16,.05-.24,.06-.1,0-.16-.06-.23-.16l-1.61-1.98c2.3-.62,4.49-1.56,6.52-2.79h-2.5l-3.26,.06-.14-.14v-2.05l.18-.1,3.23,.06h4.07v-1.02l.1-.12h2.65l.12,.12v1.02h4.13l3.26-.06,.14,.14v2.01l-.14,.14-3.26-.06h-2.71c2.09,1.23,4.36,2.1,6.74,2.57l-1.63,2.22c-.06,.1-.16,.15-.27,.14-.08,0-.16,0-.24-.04-2.17-.76-4.22-1.83-6.07-3.18l.1,3.48h-2.97l.09-3.38Zm-7.74-7.62c1.63-.49,3.22-1.12,4.76-1.87l.29,2.12c.04,.26,0,.3-.33,.49-.96,.53-2.06,1.06-3.56,1.77l-.18-.04-1.06-2.3,.08-.18Zm3.77-3.06l-.18,.04c-1-.82-2.08-1.53-3.22-2.12l-.04-.16,1.3-1.73,.18-.06c1.16,.49,2.26,1.12,3.26,1.89l.04,.17-1.34,1.97Zm6.74-2.76l2.32-.06,.16,.14-.06,2.12v2.77l.06,2.91-.18,.12-1.9-.04h-3.2l-2.16,.04-.14-.12,.06-2.81v-2.95l-.06-2.08,.14-.1,2.12,.06c.18-.67,.32-1.3,.45-1.97l.17-.08,2.5,.43,.06,.22c-.18,.51-.35,.98-.51,1.4h.17Zm-2.57,3.04h2.44v-1.04h-2.44v1.04Zm0,2.89h2.44v-1.1h-2.44v1.1Zm10.04-5.29c-.98,.86-2.04,1.63-3.16,2.3-.08,.05-.16,.08-.26,.08-.11,0-.21-.06-.26-.16l-1.32-1.73c1.09-.71,2.08-1.55,2.97-2.49l.2-.02,1.84,1.83-.02,.19Zm-1.3,7.61l-.2,.02c-1.04-.9-2.16-1.71-3.34-2.42l-.02-.18,1.32-1.75,.24-.04c1.21,.63,2.36,1.37,3.44,2.2l.02,.2-1.46,1.96Z"/><path class="catchcopy_sp" d="M269.22,16c.01,1.54-1.23,2.8-2.77,2.81s-2.8-1.23-2.81-2.77c-.01-1.54,1.23-2.8,2.77-2.81,0,0,.01,0,.02,0,1.51-.03,2.76,1.17,2.79,2.68,0,.03,0,.06,0,.09m-4.42,0c0,.9,.73,1.63,1.63,1.63,.9,0,1.63-.73,1.63-1.63,0-.9-.73-1.63-1.63-1.63-.88-.02-1.61,.68-1.63,1.57,0,.02,0,.04,0,.06"/><path class="catchcopy_sp" d="M7.88,50.97c-.19-.16-.36-.34-.51-.53-1.09,.75-2.37,1.17-3.69,1.24-1.53,0-2.42-1.2-2.42-2.81,0-2.95,2.06-5.54,4.64-6.9,.02-.67,.06-1.2,.1-1.87-.96,.08-1.97,.12-3.03,.14l-.12-.13-.04-2.3,.14-.14c.98,0,2.08-.02,3.2-.1,.06-.75,.12-1.49,.16-2.24l.14-.16,2.63,.1,.1,.18c-.08,.61-.14,1.22-.22,1.84,1.6-.21,3.18-.54,4.73-.98l.2,.08,.12,2.44-.1,.18c-1.79,.35-3.46,.63-5.19,.84-.02,.27-.06,.77-.1,1.32,.7-.12,1.41-.18,2.12-.18,.08-.26,.14-.52,.18-.78l.14-.1,2.44,.57,.1,.14c-.06,.27-.1,.45-.14,.61,2.31,.53,3.97,2.55,4.05,4.91,0,3.73-2.69,5.72-6.23,6.37-.16,0-.24,0-.34-.12l-1.75-2.01c4.22-.71,5.38-2.12,5.38-4.34,.13-1.21-.6-2.34-1.75-2.73-.7,1.94-1.81,3.71-3.26,5.19,.11,.17,.24,.33,.37,.47l-.04,.18-1.85,1.63h-.18Zm-4.07-2.77c-.03,.32,.2,.6,.52,.63,.05,0,.1,0,.14,0,.65-.12,1.27-.4,1.79-.81-.26-1.08-.39-2.19-.39-3.3-1.12,.84-1.86,2.09-2.06,3.48m6.35-5.07c-.56-.03-1.13,.05-1.67,.22-.06,.87-.03,1.75,.08,2.61,.67-.86,1.21-1.81,1.59-2.83"/><path class="catchcopy_sp" d="M36.45,51.43c-1.81,.14-3.72,.22-6.19,.22-4.72,0-6.98-1.44-6.98-4.52,0-1.79,1.47-3.5,3.56-4.97-1.03-1.51-1.99-3.07-2.86-4.68l.04-.2,2.37-1.23,.2,.06c.85,1.57,1.78,3.1,2.79,4.58,1.87-.93,3.79-1.76,5.76-2.48l.2,.08,1.16,2.57-.08,.16c-1.71,.57-3.46,1.24-4.6,1.73-.32,.23-.51,.59-.53,.98-.09,.72-.69,1.27-1.42,1.28-.5,0-.98-.19-1.35-.53-1.53,.89-2.22,1.71-2.22,2.63,0,1.32,1.67,1.61,3.99,1.61,2.02-.02,4.04-.16,6.05-.4l.16,.12,.08,2.81-.12,.17Z"/><path class="catchcopy_sp" d="M55.07,48.85v2.46h-9.55v-2.46h3.07v-9.53l-3.38,1.28v-2.71l5.05-1.89h1.77v12.85h3.05Z"/><path class="catchcopy_sp" d="M61.3,44.37l-1.26-2.57,.06-.18c5.38-2.5,8.96-3.67,11.5-3.67,3.64,0,6.05,2.14,6.05,5.8-.04,2.6-1.6,4.94-3.99,5.98-1.88,.78-3.87,1.24-5.9,1.35-.31,0-.41,0-.53-.19l-1.57-2.63c2.06-.04,4.1-.42,6.03-1.12,1.69-.46,2.81-2.05,2.69-3.79,0-1.51-.98-2.5-2.95-2.51-2.08-.02-5.01,1.06-9.94,3.61l-.2-.06Z"/><path class="catchcopy_sp" d="M91.64,44.96h3.12l2.14-.06,.16,.12v2.24l-.1,.12-2.2-.06h-3.12v2.63c.43,.04,.88,.08,1.33,.08,1.65,.02,4.23-.08,6.58-.22l-1.1,2.65c-.08,.2-.14,.2-.35,.2-1,.04-2.3,.06-3.52,.06-1.21,.01-2.43-.03-3.64-.14-1.39-.16-2.72-.6-3.93-1.3-.61-.4-1.13-.9-1.55-1.49-.61,1.26-1.48,2.39-2.53,3.32-.07,.08-.17,.13-.28,.14-.09,0-.17-.04-.24-.1l-1.95-1.55c2.14-1.77,3.32-3.93,3.62-7.67l.16-.12,2.48,.53,.14,.16c-.09,.88-.23,1.75-.43,2.62,.47,.84,1.17,1.53,2.03,1.99,.12,.06,.26,.14,.39,.2v-6.5h-2.05l-3.16,.06-.14-.14,.06-2.48v-2.23l-.06-2.44,.14-.14,3.16,.06h6.49l3.16-.06,.14,.14-.06,2.3v2.03l.06,2.81-.14,.14-3.16-.06h-1.65v2.16Zm2-7.09h-7.29v2.57h7.29v-2.57Z"/><path class="catchcopy_sp" d="M107.25,35.31l2.65,.17,.14,.16c-.12,.9-.2,1.35-.31,1.92-.14,.57-.29,1-.51,1.73,1-1.54,3.06-1.98,4.6-.97,.4,.26,.74,.61,1,1.01,.9,1.5,1.3,3.24,1.16,4.97,0,4.07-1.49,6.86-6.13,8.43-.12,.04-.25,.07-.37,.08-.14,0-.28-.07-.37-.18l-2.02-1.98c4.62-1.14,5.7-3.03,5.7-6.58,.05-1.01-.07-2.02-.37-2.99-.16-.51-.65-.84-1.18-.79-.75,0-1.69,1-2.06,1.99-.31,.76-.45,1.58-.41,2.4,.02,.84,.19,1.66,.51,2.44l-.1,.2-2.48,.59-.2-.08c-.52-1.07-.79-2.23-.79-3.42,.07-1.63,.32-3.25,.75-4.83,.31-1.36,.52-2.74,.65-4.13l.16-.15Z"/><path class="catchcopy_sp" d="M131.47,35.53c-.18,.78-.39,1.55-.57,2.26,.69-.14,1.38-.29,2.06-.47l.18,.08,.38,1.73c2.1,.12,4.16,.64,6.07,1.53l.06,.2-.8,2.18-.16,.08c-.49-.25-1.04-.36-1.59-.33-1.26,0-2.34,.49-2.34,1.38,.13,1.02,.42,2.01,.87,2.93,1.53,.64,2.97,1.49,4.28,2.51v.2l-1.65,2.12-.18,.02c-.72-.68-1.49-1.31-2.3-1.87-.06,1.59-1.79,2.63-4.01,2.63-2.55,0-4.13-1.02-4.13-3.07,0-1.85,1.57-3.14,3.68-3.14,.43,0,.85,.03,1.28,.1-.29-.77-.43-1.58-.43-2.4,.04-1.06,1.04-1.97,2.67-2.46-.89-.14-1.78-.23-2.67-.27l-.1-.14,.49-1.12c-.85,.18-1.71,.35-2.58,.47-1.13,3.09-2.69,6-4.64,8.64l-.2,.04-2.31-1.5v-.18c1.65-2,2.99-4.24,3.97-6.64-1.02,.1-2.06,.16-3.14,.18l-.16-.12-.06-2.42,.14-.14c1.49-.04,2.89-.14,4.23-.27,.31-1.07,.56-2.16,.75-3.26l.18-.12,2.63,.45,.12,.18Zm-.24,13.24c-.67,0-1.06,.41-1.06,.75,0,.47,.43,.79,1.14,.79,1.12,0,1.77-.39,1.75-1.18-.56-.28-1.2-.41-1.83-.36"/><path class="catchcopy_sp" d="M144.96,37.26l2.77,.1,.14,.14c-.18,2.18-.24,4.13-.24,5.27-.03,1.31,.12,2.62,.45,3.89,.22,.76,.47,1.33,.9,1.33,.53,0,1.2-1.06,1.65-2.87l1.96,2.48c.13,.13,.15,.33,.06,.49-.79,2.04-2.06,3.52-3.66,3.52-1.28,0-2.4-.9-3.18-2.5-.81-1.93-1.2-4.02-1.14-6.11,0-1.59,.04-3.48,.14-5.62l.14-.11Zm9.32,3.42l1.89-1.51,.22-.04c2.3,1.58,4.1,3.78,5.21,6.35l-.06,.18-2.5,1.55-.2-.06c-.87-2.51-2.48-4.7-4.6-6.29l.05-.18Z"/><path class="catchcopy_sp" d="M179.58,51.43c-1.81,.14-3.72,.22-6.19,.22-4.72,0-6.98-1.44-6.98-4.52,0-1.79,1.47-3.5,3.56-4.97-1.04-1.51-1.99-3.07-2.87-4.68l.04-.2,2.38-1.23,.2,.06c.85,1.57,1.78,3.1,2.79,4.58,1.87-.93,3.79-1.76,5.76-2.48l.2,.08,1.16,2.57-.08,.16c-1.71,.57-3.46,1.24-4.6,1.73-.32,.23-.51,.59-.53,.98-.09,.72-.69,1.27-1.42,1.28-.5,0-.98-.19-1.36-.53-1.53,.89-2.22,1.71-2.22,2.63,0,1.32,1.67,1.61,3.99,1.61,2.02-.02,4.04-.16,6.05-.4l.16,.12,.08,2.81-.12,.17Z"/><path class="catchcopy_sp" d="M188.46,50.99c2.85-.59,4.64-1.83,5.15-3.05-.55,.38-1.22,.54-1.89,.45-1.81,0-2.79-.94-2.79-2.34,0-2.34,1.81-4.44,3.54-4.44,.33-.01,.66,.02,.98,.1,0-.43,0-.81-.02-1.28-2.51,.14-5.17,.38-7.94,.69l-.16-.12-.2-2.48,.14-.18c2.73-.19,5.52-.39,8.15-.53v-2.65l.12-.14h2.71l.16,.16c-.02,.9-.04,1.71-.06,2.46,1.96-.08,3.93-.16,5.8-.17l.16,.14v2.46l-.16,.14c-1.95,0-3.91,.02-5.82,.1,0,1.08,0,2.22,.06,3.56,.27,.77,.41,1.58,.43,2.4,.02,1.13-.26,2.24-.83,3.22-1.02,1.67-2.63,2.89-4.52,3.42-.08,.02-.14,.04-.2,.06-.09,.03-.18,.04-.27,.04-.11,0-.22-.04-.32-.1l-2.24-1.91Zm4.22-7.06c-.55,0-1.2,.84-1.2,1.45,0,.37,.12,.55,.63,.55,.81,0,1.38-.33,1.42-1.24-.14-.55-.45-.77-.85-.77"/><path class="catchcopy_sp" d="M209.37,39.71l-.51-2.51,.12-.18c2.99-.67,6.01-1.14,8.16-1.41,.97-.02,1.77,.74,1.81,1.71,.03,.37-.1,.74-.35,1.02-1.59,1.57-2.69,2.57-4.32,4.19,.76-.38,1.61-.56,2.46-.51,2.61-.13,4.83,1.89,4.96,4.5,0,.19,0,.38,0,.57,0,3.58-2.69,5.6-7.23,5.6-2.32,0-4.29-.96-4.29-3.2,.18-1.53,1.46-2.7,3.01-2.73,1.83-.03,3.45,1.16,3.99,2.91,1.07-.52,1.69-1.67,1.51-2.85,0-1.37-1.11-2.48-2.48-2.48-.06,0-.13,0-.19,0-2.81,0-4.83,1.85-6.92,4.54l-.2,.02-2.1-1.69-.02-.22c2.71-3.1,5.19-5.82,7.8-8.41-1.49,.32-3.22,.73-5.03,1.24l-.16-.1Zm3.99,9.33c-.39,0-.75,.16-.75,.51,0,.41,.45,.79,1.46,.79,.21,0,.42-.01,.63-.06-.11-.67-.66-1.18-1.34-1.24"/><path class="catchcopy_sp" d="M235.68,35.53c-.18,.78-.39,1.55-.57,2.26,.69-.14,1.38-.29,2.06-.47l.18,.08,.38,1.73c2.1,.12,4.16,.64,6.07,1.53l.06,.2-.8,2.18-.16,.08c-.49-.24-1.04-.36-1.59-.33-1.26,0-2.34,.49-2.34,1.38,.13,1.02,.42,2.01,.87,2.93,1.53,.64,2.97,1.49,4.28,2.51v.2l-1.65,2.12-.18,.02c-.72-.68-1.49-1.31-2.3-1.87-.06,1.59-1.79,2.63-4.01,2.63-2.55,0-4.13-1.02-4.13-3.07,0-1.85,1.57-3.14,3.68-3.14,.43,0,.85,.03,1.28,.1-.29-.77-.43-1.58-.43-2.4,.04-1.06,1.04-1.97,2.67-2.46-.89-.14-1.78-.23-2.67-.27l-.1-.14,.49-1.12c-.85,.18-1.71,.35-2.58,.47-1.13,3.09-2.69,6-4.64,8.64l-.2,.04-2.32-1.49v-.18c1.65-2,2.99-4.24,3.97-6.64-1.02,.1-2.06,.16-3.14,.18l-.16-.12-.06-2.42,.14-.14c1.49-.04,2.89-.14,4.23-.27,.31-1.07,.56-2.16,.74-3.26l.18-.12,2.63,.45,.13,.17Zm-.24,13.24c-.67,0-1.06,.41-1.06,.75,0,.47,.43,.79,1.14,.79,1.12,0,1.77-.39,1.75-1.18-.56-.28-1.2-.41-1.83-.36"/><path class="catchcopy_sp" d="M251.06,39.87l2.46,.47,.12,.17c-.37,1.37-.63,2.77-.79,4.19,1.46-1.54,3.5-2.41,5.62-2.4,3.28,0,5.07,2.04,5.07,4.52,0,3.83-3.71,5.48-9.2,5.78-.35,0-.47-.02-.63-.25l-1.63-2.4c5.26-.16,8.19-1.2,8.19-3.08,0-1.18-.41-2.04-2.04-2.04-1.77,0-3.95,.98-5.54,3.77l-.2,.1-2.4-.22-.14-.18c0-2.81,.3-5.61,.9-8.35l.21-.08Zm1.47-2.53l1.22-2.14,.2-.1c1.65,.42,3.25,1.04,4.76,1.83l.04,.2-1.34,2.3-.2,.04c-1.45-.84-3-1.5-4.62-1.97l-.05-.16Z"/><path class="catchcopy_sp" d="M270.26,35.98l2.67,.38,.12,.17c-.1,1.5-.35,2.99-.77,4.44-.45,1.81-.69,3.67-.73,5.54,0,.41,.03,.82,.12,1.22,.1,.39,.22,.43,.59,.06,.37-.38,.7-.79,.99-1.24l.59,.31c-.57,1.38-.91,2.84-1.02,4.32,.04,.69-.49,1.28-1.18,1.32-.04,0-.08,0-.12,0-.62-.04-1.19-.36-1.55-.86-.83-1.4-1.23-3.03-1.12-4.66,0-2.32,.24-4.63,.71-6.9,.32-1.32,.51-2.66,.57-4.01l.14-.1Zm13.77,15.41c-.59-.71-1.26-1.36-1.98-1.93-.36,1.85-1.71,2.62-3.79,2.62s-3.93-.88-3.93-3.07,1.96-3.13,3.75-3.13c.41-.02,.83,.01,1.24,.08-.06-1.24-.1-2.55-.14-4.01-1.35,.1-2.79,.14-4.13,.16l-.14-.16-.06-2.4,.14-.12c1.43,0,2.79-.04,4.13-.12-.04-.98-.04-2.06-.04-3.16l.16-.18h2.59l.16,.16c0,1-.02,1.98-.02,2.93,.81-.1,1.63-.22,2.4-.33l.2,.1,.35,2.38-.12,.16c-.81,.14-1.77,.27-2.81,.37,.02,1.77,.1,3.44,.2,4.91,1.35,.57,2.58,1.39,3.62,2.44l-.02,.22-1.53,2.04-.23,.04Zm-6.01-3.26c-.79,0-1.2,.31-1.2,.73,0,.33,.29,.67,1.24,.67,1.06,0,1.28-.37,1.22-1.22-.4-.15-.83-.21-1.26-.18m4.07-12.79l1.08-.51,.2,.02c.57,.73,1.06,1.52,1.46,2.36l-.06,.2-1.1,.53-.2-.06c-.38-.85-.86-1.65-1.43-2.38l.07-.16Zm2.08-.69l1.08-.51,.2,.02c.56,.71,1.04,1.48,1.42,2.3l-.06,.18-1.1,.53-.2-.04c-.36-.82-.83-1.6-1.39-2.3l.06-.18Z"/><path class="catchcopy_sp" d="M290.91,47.32c1.57,1.05,2.95,2.36,4.09,3.87v.16l-2.02,1.83h-.18c-1.1-1.57-2.44-2.95-3.99-4.09v-.18l1.91-1.57,.2-.02Z"/><path class="catchcopy_sp" d="M3.16,76.89c2.06,.05,4.12-.24,6.09-.86-.32-.55-.65-1.08-1-1.63-1.65,.42-3.35,.66-5.05,.73l-.16-.14-.47-2.16,.08-.16c1.36-.06,2.72-.24,4.05-.55-.39-.57-.85-1.16-1.34-1.81l.02-.2,2.54-.86,.2,.08c.49,.65,.94,1.32,1.42,1.99,1.08-.4,2.12-.88,3.12-1.44l.2,.02,1.2,2.05-.02,.19c-.99,.52-2,.99-3.04,1.39,.27,.47,.51,.83,.92,1.5,1.05-.48,2.06-1.03,3.03-1.65l.18,.02,1.37,2.04-.06,.2c-1,.63-2.24,1.28-3.14,1.73,.49,.88,.94,1.71,1.34,2.44,.24,.43,.37,.92,.37,1.41-.03,.88-.73,1.6-1.61,1.65-.34-.02-.67-.14-.94-.33-.97-.64-2.05-1.09-3.19-1.33l.04-.61c.65-.06,1.26-.14,2.08-.26,.14-.02,.2-.1,.12-.26-.26-.49-.59-1.1-.89-1.65-2.24,.72-4.59,1.04-6.94,.94l-.14-.1-.49-2.24,.12-.16Zm-.38,6.98l1.63-1.75,.18,.02c1.37,1.53,3.67,1.92,6.21,1.92,.75,0,1.5-.04,2.24-.12l.16,.16,.06,2.73-.16,.14c-.96,.06-1.63,.08-2.4,.08-4.13,0-6.37-1.06-7.92-2.99v-.2Z"/><path class="catchcopy_sp" d="M21.49,79.49c4.76-2.18,6.94-2.89,8.82-2.89,3.01,0,4.85,1.87,4.85,4.6,.05,2.01-1.16,3.84-3.03,4.6-1.42,.55-2.91,.91-4.42,1.08-.1,.01-.21,.02-.32,.02-.26,0-.33-.08-.47-.29l-1.27-2.17c1.6,.02,3.2-.26,4.7-.82,1.2-.35,2-1.48,1.93-2.73,0-1.18-.77-1.79-2.08-1.79-1.57,0-3.24,.59-7.47,2.77l-.2-.02-1.08-2.16,.03-.2Z"/><path class="catchcopy_sp" d="M55.32,85.83c-1.81,.14-3.72,.22-6.19,.22-4.72,0-6.98-1.44-6.98-4.52,0-1.79,1.47-3.5,3.56-4.97-1.04-1.51-1.99-3.07-2.87-4.68l.04-.2,2.38-1.24,.2,.06c.85,1.57,1.78,3.1,2.79,4.58,1.87-.93,3.79-1.76,5.76-2.48l.2,.08,1.16,2.57-.08,.16c-1.71,.57-3.46,1.24-4.6,1.73-.32,.23-.51,.59-.53,.98-.09,.72-.69,1.27-1.42,1.28-.5,0-.98-.19-1.35-.53-1.53,.88-2.22,1.71-2.22,2.63,0,1.32,1.67,1.61,3.99,1.61,2.02-.02,4.04-.16,6.05-.4l.16,.12,.08,2.81-.12,.18Z"/><path class="catchcopy_sp" d="M62.27,81.1l2.44-.81,.16,.08c.33,2.05,1.39,2.36,4.67,2.36,2.12,0,4.23-.17,6.33-.49l.18,.14,.28,2.95-.12,.18c-2.28,.23-4.57,.33-6.86,.31-5.88,0-6.94-2.38-7.17-4.58l.1-.14Zm2.3-9.53c1.18,.12,2.34,.18,3.5,.18,2.03-.02,4.06-.19,6.07-.49l.14,.12,.08,2.77-.16,.14c-2.03,.34-4.09,.5-6.15,.49-1.1,0-2.38-.06-3.56-.17l-.16-.14,.1-2.79,.14-.1Z"/><path class="catchcopy_sp" d="M82.72,81.1l2.44-.81,.16,.08c.33,2.05,1.39,2.36,4.67,2.36,2.12,0,4.23-.17,6.33-.49l.18,.14,.28,2.95-.12,.18c-2.28,.23-4.57,.33-6.86,.31-5.88,0-6.94-2.38-7.17-4.58l.1-.14Zm2.3-9.53c1.18,.12,2.34,.18,3.5,.18,2.03-.02,4.06-.19,6.07-.49l.14,.12,.08,2.77-.16,.14c-2.03,.34-4.09,.5-6.15,.49-1.1,0-2.38-.06-3.56-.17l-.16-.14,.1-2.79,.14-.1Z"/><path class="catchcopy_sp" d="M104.11,70.66l2.71,.38,.12,.16c-.13,1.45-.43,2.88-.9,4.26-.44,1.48-.68,3.01-.73,4.56-.03,.66,0,1.33,.12,1.99,.06,.25,.26,.28,.55-.02,.35-.41,.69-.83,1-1.28l.57,.29c-.52,1.33-.84,2.72-.92,4.15,.08,.71-.42,1.36-1.14,1.44-.07,0-.15,.01-.22,0-.79,.02-1.26-.41-1.71-1.2-.76-1.6-1.1-3.38-.98-5.15,.07-2.02,.36-4.02,.86-5.98,.3-1.14,.47-2.32,.51-3.5l.15-.11Zm14.21,14.54c-1.53,.22-3.07,.33-4.62,.31-3.95,0-4.99-1.98-5.46-4.17l.1-.17,2.1-.96,.18,.06c.37,1.85,1.14,2.44,3.77,2.42,1.23-.04,2.46-.18,3.68-.41l.18,.12,.18,2.63-.1,.17Zm-8.57-12.56c.65,.02,1.28,.04,1.89,.04,1.86,0,3.71-.15,5.54-.47l.14,.12,.12,2.48-.12,.16c-1.87,.35-3.77,.51-5.68,.49-.63,0-1.24,0-1.87-.04l-.14-.17v-2.44l.12-.16Z"/><path class="catchcopy_sp" d="M128.84,84.81c.01,1.54-1.23,2.8-2.77,2.81-1.54,.01-2.8-1.23-2.81-2.77-.01-1.54,1.23-2.8,2.77-2.81,0,0,.01,0,.02,0,1.51-.03,2.76,1.17,2.79,2.68,0,.03,0,.06,0,.09m-4.42,0c0,.9,.73,1.63,1.63,1.63,.9,0,1.63-.73,1.63-1.63,0-.9-.73-1.63-1.63-1.63-.88-.02-1.61,.69-1.63,1.57,0,.02,0,.04,0,.06"/></svg>