<svg id="logotype_RightsWave" xmlns="http://www.w3.org/2000/svg" width="206.81" height="36" viewBox="0 0 206.81 36">
  <path id="パス_225" data-name="パス 225" d="M670.944,665.992h10.6a17.761,17.761,0,0,1,3.6.36,9.121,9.121,0,0,1,3.195,1.292,6.878,6.878,0,0,1,2.276,2.465,7.818,7.818,0,0,1,.87,3.876,6.961,6.961,0,0,1-4.3,6.631l6.245,9.98h-9.5l-4.711-8.8h-.25v8.8h-8.029Zm7.963,10.389h1.622a7.038,7.038,0,0,0,.914-.066,2.93,2.93,0,0,0,.932-.3,2.085,2.085,0,0,0,.721-.624,1.761,1.761,0,0,0,.294-1.063,1.917,1.917,0,0,0-.242-1.037,1.5,1.5,0,0,0-.62-.576,2.527,2.527,0,0,0-.826-.242,6.335,6.335,0,0,0-.831-.053h-1.964Z" transform="translate(-670.944 -662.932)" fill="#fff"/>
  <path id="パス_226" data-name="パス 226" d="M679.081,669.04a3.881,3.881,0,0,1,.33-1.582,4.236,4.236,0,0,1,.905-1.31,4.629,4.629,0,0,1,1.332-.883,4.138,4.138,0,0,1,1.639-.33,3.77,3.77,0,0,1,1.564.33,4.77,4.77,0,0,1,1.3.883,4.249,4.249,0,0,1,.91,1.31,4.03,4.03,0,0,1,0,3.19,3.93,3.93,0,0,1-.91,1.292,4.575,4.575,0,0,1-1.3.853,3.977,3.977,0,0,1-1.564.312,4.368,4.368,0,0,1-1.639-.312,4.456,4.456,0,0,1-1.332-.853,3.963,3.963,0,0,1-1.235-2.9Zm.136,5.282h8.024V692.6h-8.024Z" transform="translate(-655.517 -664.935)" fill="#fff"/>
  <path id="パス_227" data-name="パス 227" d="M682.693,677.566a11.614,11.614,0,0,1,.532-3.48,10,10,0,0,1,1.586-3.054,7.986,7.986,0,0,1,2.606-2.188,7.6,7.6,0,0,1,3.608-.835,7.9,7.9,0,0,1,2.874.554,5.157,5.157,0,0,1,2.312,1.78h.1V668.5h7.545v16.4a11.238,11.238,0,0,1-.976,4.97,8.332,8.332,0,0,1-2.588,3.142,9.949,9.949,0,0,1-3.669,1.63,18.417,18.417,0,0,1-4.17.47,20.53,20.53,0,0,1-5.207-.677,14.479,14.479,0,0,1-4.553-2l3.507-5.317a9.4,9.4,0,0,0,5.563,1.947,5.883,5.883,0,0,0,1.652-.224,4.362,4.362,0,0,0,1.371-.659,3.334,3.334,0,0,0,.936-1.077,3.057,3.057,0,0,0,.343-1.481v-.8h-.105A5.663,5.663,0,0,1,694,686.184a7.1,7.1,0,0,1-2.979.593,8.48,8.48,0,0,1-3.678-.747,7.536,7.536,0,0,1-2.606-2.021,8.294,8.294,0,0,1-1.547-2.931A12.155,12.155,0,0,1,682.693,677.566Zm7.435,0a3.286,3.286,0,0,0,.765,2.206,2.776,2.776,0,0,0,2.219.888,3,3,0,0,0,2.281-.905,3.093,3.093,0,0,0,.848-2.188,3,3,0,0,0-3.129-3.023,2.731,2.731,0,0,0-2.219.905A3.185,3.185,0,0,0,690.128,677.566Z" transform="translate(-648.671 -659.113)" fill="#fff"/>
  <path id="パス_228" data-name="パス 228" d="M704.156,672.926a6.5,6.5,0,0,1,3.172.694,5.66,5.66,0,0,1,2.008,1.784,6.847,6.847,0,0,1,1.037,2.457,12.594,12.594,0,0,1,.3,2.711v11.113H702.64v-9.729a3.282,3.282,0,0,0-.431-1.946,1.564,1.564,0,0,0-1.305-.554,1.666,1.666,0,0,0-1.248.611A2.765,2.765,0,0,0,699.1,682v9.69h-8.029v-26.27H699.1v10.006h.07a6.045,6.045,0,0,1,1.973-1.753A5.855,5.855,0,0,1,704.156,672.926Z" transform="translate(-632.787 -664.028)" fill="#fff"/>
  <path id="パス_229" data-name="パス 229" d="M708.224,689.624c-2.452,0-4.275-.523-5.453-1.582A6.251,6.251,0,0,1,701,683.125v-6.53h-2.571v-5.739h2.54v-4.1h7.778v4.1h3.964v5.739h-3.964v4.86a2.2,2.2,0,0,0,.58,1.789,2.363,2.363,0,0,0,1.578.466,5.176,5.176,0,0,0,.8-.062,6.02,6.02,0,0,0,.659-.141V689a7.048,7.048,0,0,1-1.753.457A15.945,15.945,0,0,1,708.224,689.624Z" transform="translate(-618.841 -661.478)" fill="#fff"/>
  <path id="パス_230" data-name="パス 230" d="M720.654,681.11a5.709,5.709,0,0,1-.782,3.089,6.134,6.134,0,0,1-1.973,2,8.375,8.375,0,0,1-2.606,1.077,11.975,11.975,0,0,1-2.7.334,16.192,16.192,0,0,1-4.645-.681A12.474,12.474,0,0,1,704,685l3.929-4.553a6.642,6.642,0,0,0,1.964,1.23,5.574,5.574,0,0,0,2.171.475,1.95,1.95,0,0,0,.787-.158.569.569,0,0,0,.365-.571c0-.3-.215-.541-.65-.712a16.772,16.772,0,0,0-2.237-.646,10.108,10.108,0,0,1-1.775-.606,6.514,6.514,0,0,1-1.648-1.059,5.432,5.432,0,0,1-1.235-1.617,5.013,5.013,0,0,1-.483-2.276,5.558,5.558,0,0,1,.782-3.023,6.375,6.375,0,0,1,1.978-2.03,8.415,8.415,0,0,1,2.61-1.147,10.678,10.678,0,0,1,2.659-.369,14.583,14.583,0,0,1,4.206.628,14.119,14.119,0,0,1,3.752,1.731l-3.752,4.487a8.374,8.374,0,0,0-1.775-.866,5.257,5.257,0,0,0-1.771-.316,2.62,2.62,0,0,0-.98.154.612.612,0,0,0-.382.611c0,.229.149.413.439.541a13.145,13.145,0,0,0,1.986.5,10.5,10.5,0,0,1,2.1.646,7.449,7.449,0,0,1,1.832,1.107,5.007,5.007,0,0,1,1.3,1.652A5.136,5.136,0,0,1,720.654,681.11Z" transform="translate(-608.261 -659.248)" fill="#fff"/>
  <path id="パス_231" data-name="パス 231" d="M736.278,690.6h-8.266l-.7-14.181h-.132L720.713,690.6h-8.165l-1.907-24.6h8.512v14.075h.132l5.77-14.075h8.279l.272,14.075h.136l5.77-14.075h8.38Z" transform="translate(-595.676 -662.932)" fill="#fff"/>
  <path id="パス_232" data-name="パス 232" d="M739.268,684.011a13.63,13.63,0,0,0-.193,1.56c-.035.532-.053.954-.053,1.248h-6.671c0-.163,0-.417.018-.778s.031-.659.053-.883h-.07a5.94,5.94,0,0,1-2.294,1.648,7.707,7.707,0,0,1-2.848.5,7.406,7.406,0,0,1-1.947-.272,5.584,5.584,0,0,1-1.758-.853,4.271,4.271,0,0,1-1.266-1.5,4.658,4.658,0,0,1-.488-2.206,5.964,5.964,0,0,1,.958-3.5,6.815,6.815,0,0,1,2.571-2.171,12.984,12.984,0,0,1,3.735-1.125,28.9,28.9,0,0,1,4.447-.334.968.968,0,0,0,.035-.224v-.149a1.183,1.183,0,0,0-.606-1.068,3.077,3.077,0,0,0-1.582-.36,5.525,5.525,0,0,0-2.153.431,7.444,7.444,0,0,0-1.916,1.169l-3.4-3.894a9.789,9.789,0,0,1,1.894-1.411,15.779,15.779,0,0,1,2.171-1.028,13.851,13.851,0,0,1,2.254-.62,12.607,12.607,0,0,1,2.193-.211q4.173,0,6.271,1.688a5.724,5.724,0,0,1,2.1,4.737,17.587,17.587,0,0,1-.277,2.892Zm-6.012-4.693H732.8a11.937,11.937,0,0,0-1.63.1,6.123,6.123,0,0,0-1.336.33,2.608,2.608,0,0,0-.923.589,1.288,1.288,0,0,0-.347.923,1.007,1.007,0,0,0,.5,1.028,2.681,2.681,0,0,0,1.094.229,2.886,2.886,0,0,0,1.969-.729,3.234,3.234,0,0,0,1.02-1.881Z" transform="translate(-574.609 -659.154)" fill="#fff"/>
  <path id="パス_233" data-name="パス 233" d="M740.2,686.453h-8.477l-3.1-18.277h8.2l.694,10.112h.141l4.623-10.112h8.618Z" transform="translate(-561.574 -658.793)" fill="#fff"/>
  <path id="パス_234" data-name="パス 234" d="M742.574,679.489a.971.971,0,0,0-.031.237,1.469,1.469,0,0,0,.308.962,2.473,2.473,0,0,0,.765.589,3.421,3.421,0,0,0,.976.312,5.94,5.94,0,0,0,.936.092,4.99,4.99,0,0,0,1.709-.3,4.132,4.132,0,0,0,1.49-.918l5.251,3.612a9.8,9.8,0,0,1-4.135,2.575,16.046,16.046,0,0,1-4.834.729,13.147,13.147,0,0,1-3.7-.519,8.767,8.767,0,0,1-3.05-1.569,7.431,7.431,0,0,1-2.07-2.588,8.079,8.079,0,0,1-.765-3.63,11.39,11.39,0,0,1,.831-4.359,10.5,10.5,0,0,1,2.347-3.524,10.793,10.793,0,0,1,3.621-2.351,12.316,12.316,0,0,1,4.636-.853,10.674,10.674,0,0,1,3.617.58,7.733,7.733,0,0,1,2.707,1.626,7.264,7.264,0,0,1,1.718,2.571,8.981,8.981,0,0,1,.61,3.393,10.977,10.977,0,0,1-.132,1.666,9,9,0,0,1-.355,1.67Zm6.152-4.14a.6.6,0,0,0,.035-.224v-.193a1.734,1.734,0,0,0-.646-1.411,2.73,2.73,0,0,0-1.789-.532,3.316,3.316,0,0,0-1.3.246,4.035,4.035,0,0,0-.989.6,3.386,3.386,0,0,0-.672.76,2.686,2.686,0,0,0-.369.751Z" transform="translate(-548.696 -659.154)" fill="#fff"/>
</svg>
