<svg xmlns="http://www.w3.org/2000/svg" width="860" height="149.708" viewBox="0 0 860 149.708">
  <g id="logotype" transform="translate(0 0)">
    <g id="グループ_190" data-name="グループ 190">
      <path id="パス_225" data-name="パス 225" d="M670.945,665.992h44.078a74.8,74.8,0,0,1,14.97,1.506,37.461,37.461,0,0,1,13.283,5.371,28.847,28.847,0,0,1,9.466,10.249q3.614,6.431,3.613,16.114a28.965,28.965,0,0,1-17.86,27.6L764.46,768.31H724.946l-19.594-36.575H704.34V768.31h-33.4ZM704.039,709.2h6.744a27.413,27.413,0,0,0,3.794-.289,11.6,11.6,0,0,0,3.89-1.241,8.726,8.726,0,0,0,3.011-2.589,7.357,7.357,0,0,0,1.2-4.42,8.008,8.008,0,0,0-1-4.323,6.3,6.3,0,0,0-2.59-2.385,10.161,10.161,0,0,0-3.432-1.012,30.016,30.016,0,0,0-3.445-.217h-8.177Z" transform="translate(-670.945 -653.274)" fill="#fff"/>
      <path id="パス_226" data-name="パス 226" d="M679.081,681.989a16.13,16.13,0,0,1,1.373-6.575,17.268,17.268,0,0,1,3.758-5.432,18.959,18.959,0,0,1,5.563-3.674,17,17,0,0,1,6.793-1.373,15.551,15.551,0,0,1,6.5,1.373,19.23,19.23,0,0,1,5.42,3.674,17.282,17.282,0,0,1,3.757,5.432,16.129,16.129,0,0,1,1.372,6.575,16.411,16.411,0,0,1-5.13,12.068,18.1,18.1,0,0,1-5.42,3.54,16.29,16.29,0,0,1-6.5,1.3,18,18,0,0,1-12.356-4.841,16.266,16.266,0,0,1-3.758-5.348A16.439,16.439,0,0,1,679.081,681.989Zm.578,21.968h33.384v76.015H679.659Z" transform="translate(-581.098 -664.936)" fill="#fff"/>
      <path id="パス_227" data-name="パス 227" d="M682.693,707.75a47.768,47.768,0,0,1,2.241-14.464,40.83,40.83,0,0,1,6.587-12.705,33,33,0,0,1,10.827-9.1,31.523,31.523,0,0,1,15.029-3.469,32.442,32.442,0,0,1,11.923,2.3,21.57,21.57,0,0,1,9.611,7.395h.433v-7.671H770.7v68.212q0,12.409-4.046,20.666a34.475,34.475,0,0,1-10.766,13.079,41.383,41.383,0,0,1-15.247,6.78A76.8,76.8,0,0,1,723.3,780.72a86.175,86.175,0,0,1-21.666-2.807,60.066,60.066,0,0,1-18.944-8.321l14.6-22.111a37.808,37.808,0,0,0,11.561,6.142,37.421,37.421,0,0,0,11.562,1.951,24.292,24.292,0,0,0,6.876-.94,17.714,17.714,0,0,0,5.7-2.734,13.535,13.535,0,0,0,3.9-4.48,12.778,12.778,0,0,0,1.445-6.142v-3.324H737.9a23.237,23.237,0,0,1-8.154,5.625,29.5,29.5,0,0,1-12.368,2.468,35.109,35.109,0,0,1-15.306-3.107,31.179,31.179,0,0,1-10.851-8.394,34.72,34.72,0,0,1-6.431-12.2A50.2,50.2,0,0,1,682.693,707.75Zm30.939,0a13.644,13.644,0,0,0,3.167,9.177c2.119,2.445,5.2,3.685,9.249,3.685a12.434,12.434,0,0,0,9.465-3.757,12.814,12.814,0,0,0,3.541-9.105,12.477,12.477,0,0,0-13.006-12.573c-4.047,0-7.13,1.241-9.249,3.758A13.225,13.225,0,0,0,713.632,707.75Z" transform="translate(-541.21 -631.011)" fill="#fff"/>
      <path id="パス_228" data-name="パス 228" d="M745.492,696.631c5.275,0,9.683.964,13.187,2.89a23.586,23.586,0,0,1,8.345,7.43,28.774,28.774,0,0,1,4.324,10.2,52.73,52.73,0,0,1,1.228,11.272V774.67H739.182V734.206c0-3.841-.591-6.551-1.8-8.1a6.494,6.494,0,0,0-5.419-2.3,6.921,6.921,0,0,0-5.2,2.529c-1.542,1.674-2.313,4.36-2.313,8.021v40.32H691.069V665.416h33.384v41.609h.289a25.071,25.071,0,0,1,8.213-7.286A24.413,24.413,0,0,1,745.492,696.631Z" transform="translate(-448.713 -659.635)" fill="#fff"/>
      <path id="パス_229" data-name="パス 229" d="M739.179,761.853q-15.319,0-22.689-6.588-7.37-6.558-7.382-20.437V707.659H698.425V683.813h10.551V666.76h32.359v17.053H757.81v23.845H741.334v20.232c0,3.673.807,6.142,2.4,7.43a9.907,9.907,0,0,0,6.564,1.951,21.826,21.826,0,0,0,3.336-.277,23.212,23.212,0,0,0,2.735-.578v22.822a28.883,28.883,0,0,1-7.287,1.89A65.214,65.214,0,0,1,739.179,761.853Z" transform="translate(-367.48 -644.793)" fill="#fff"/>
      <path id="パス_230" data-name="パス 230" d="M773.228,722.708a23.82,23.82,0,0,1-3.24,12.862,25.593,25.593,0,0,1-8.189,8.31,35.4,35.4,0,0,1-10.863,4.467,49.6,49.6,0,0,1-11.225,1.4,67.373,67.373,0,0,1-19.3-2.829,51.962,51.962,0,0,1-16.4-8.021l16.329-18.932a27.823,27.823,0,0,0,8.166,5.131,23.733,23.733,0,0,0,9.032,1.951,7.986,7.986,0,0,0,3.263-.662,2.351,2.351,0,0,0,1.517-2.373c0-1.252-.9-2.239-2.686-2.963a71.225,71.225,0,0,0-9.321-2.673,43.206,43.206,0,0,1-7.37-2.529,27,27,0,0,1-6.865-4.408,22.413,22.413,0,0,1-5.13-6.72,20.651,20.651,0,0,1-2.024-9.477,23.12,23.12,0,0,1,3.264-12.561,26.8,26.8,0,0,1,8.226-8.454,35.869,35.869,0,0,1,10.851-4.757,44.023,44.023,0,0,1,11.055-1.53,60.7,60.7,0,0,1,17.487,2.6,58.313,58.313,0,0,1,15.607,7.227L759.8,696.406a34.864,34.864,0,0,0-7.383-3.613,22.447,22.447,0,0,0-7.371-1.3,11.044,11.044,0,0,0-4.046.638,2.5,2.5,0,0,0-1.59,2.542q0,1.445,1.807,2.24a52.377,52.377,0,0,0,8.262,2.1,43.443,43.443,0,0,1,8.719,2.673,31.2,31.2,0,0,1,7.623,4.613,21.1,21.1,0,0,1,5.4,6.865A21.344,21.344,0,0,1,773.228,722.708Z" transform="translate(-305.87 -631.807)" fill="#fff"/>
      <path id="パス_231" data-name="パス 231" d="M817.282,768.31H782.9L780,709.347h-.566L752.539,768.31H718.59l-7.949-102.318h35.395v58.529h.578l23.99-58.529h34.407l1.144,58.529h.577l23.99-58.529h34.829Z" transform="translate(-232.577 -653.274)" fill="#fff"/>
      <path id="パス_232" data-name="パス 232" d="M794.589,734.606a59.762,59.762,0,0,0-.807,6.5c-.132,2.216-.2,3.95-.2,5.2H765.829q0-1.011.073-3.251t.216-3.685h-.289a24.729,24.729,0,0,1-9.538,6.865,32.265,32.265,0,0,1-11.85,2.1,29.721,29.721,0,0,1-8.093-1.157,22.9,22.9,0,0,1-7.31-3.54,17.962,17.962,0,0,1-5.263-6.214,19.439,19.439,0,0,1-2.023-9.177c0-5.876,1.313-10.718,3.974-14.536a27.923,27.923,0,0,1,10.694-9.032,53.716,53.716,0,0,1,15.537-4.685,120.051,120.051,0,0,1,18.5-1.385,3.913,3.913,0,0,0,.144-.94v-.638a4.888,4.888,0,0,0-2.528-4.42,12.689,12.689,0,0,0-6.576-1.506,22.868,22.868,0,0,0-8.96,1.807,30.6,30.6,0,0,0-7.961,4.829l-14.15-16.186a40.778,40.778,0,0,1,7.876-5.841,61.2,61.2,0,0,1,9.032-4.275,55.749,55.749,0,0,1,9.382-2.589,51.119,51.119,0,0,1,9.116-.867q17.343,0,26.085,7.009t8.744,19.715A71.718,71.718,0,0,1,799.5,706.7Zm-25-19.51H767.7a50.2,50.2,0,0,0-6.78.434,23.512,23.512,0,0,0-5.564,1.373,10.5,10.5,0,0,0-3.829,2.456,5.31,5.31,0,0,0-1.445,3.83c0,2.216.7,3.625,2.083,4.263a10.9,10.9,0,0,0,4.553.939,11.84,11.84,0,0,0,8.177-3.035,13.36,13.36,0,0,0,4.251-7.8Z" transform="translate(-109.876 -631.276)" fill="#fff"/>
      <path id="パス_233" data-name="パス 233" d="M776.752,744.191H741.49l-12.862-76.015h34.107l2.89,42.054h.578l19.221-42.054h35.84Z" transform="translate(-33.944 -629.156)" fill="#fff"/>
      <path id="パス_234" data-name="パス 234" d="M765.191,715.807a3.267,3.267,0,0,0-.145,1.011,5.931,5.931,0,0,0,1.288,3.975,10.306,10.306,0,0,0,3.192,2.468,14.1,14.1,0,0,0,4.046,1.3,25.258,25.258,0,0,0,3.9.361,20.845,20.845,0,0,0,7.082-1.24,17.417,17.417,0,0,0,6.214-3.818l21.822,15.018a40.924,40.924,0,0,1-17.21,10.706,66.706,66.706,0,0,1-20.087,3.035,54.054,54.054,0,0,1-15.38-2.168,37.349,37.349,0,0,1-12.73-6.5,31.4,31.4,0,0,1-8.586-10.767,33.672,33.672,0,0,1-3.18-15.09,47.234,47.234,0,0,1,3.469-18.148,43.513,43.513,0,0,1,9.755-14.669,45.571,45.571,0,0,1,15.03-9.768,51.178,51.178,0,0,1,19.293-3.528A44.317,44.317,0,0,1,798,670.368a31.624,31.624,0,0,1,11.273,6.792,29.966,29.966,0,0,1,7.153,10.694,37.665,37.665,0,0,1,2.517,14.091,50.329,50.329,0,0,1-.506,6.937,40.715,40.715,0,0,1-1.517,6.925Zm25.579-17.2a3.254,3.254,0,0,0,.132-.94v-.806A7.2,7.2,0,0,0,788.242,691c-1.8-1.469-4.263-2.2-7.455-2.2a13.636,13.636,0,0,0-5.42,1.024,16.341,16.341,0,0,0-4.106,2.494,14.263,14.263,0,0,0-2.819,3.155,12.584,12.584,0,0,0-1.517,3.143Z" transform="translate(41.061 -631.276)" fill="#fff"/>
    </g>
  </g>
</svg>
