<svg xmlns="http://www.w3.org/2000/svg" width="680" height="118.374" viewBox="0 0 680 118.374"><defs><style>.a{fill:#fbfe67;}.b{fill:#fff;}</style></defs><g transform="translate(-670.945 -664.936)"><g transform="translate(670.945 664.936)"><path class="a" d="M670.945,665.992H705.8a59.143,59.143,0,0,1,11.837,1.191,29.62,29.62,0,0,1,10.5,4.247,22.809,22.809,0,0,1,7.485,8.1q2.857,5.085,2.857,12.741A22.9,22.9,0,0,1,724.356,714.1l20.531,32.8H713.643l-15.493-28.92h-.8v28.92H670.945Zm26.168,34.167h5.332a21.681,21.681,0,0,0,3-.228,9.169,9.169,0,0,0,3.076-.981A6.9,6.9,0,0,0,710.9,696.9a5.817,5.817,0,0,0,.953-3.495,6.332,6.332,0,0,0-.79-3.418,4.985,4.985,0,0,0-2.048-1.886,8.037,8.037,0,0,0-2.714-.8,23.743,23.743,0,0,0-2.724-.171h-6.466Z" transform="translate(-670.945 -655.936)"/><path class="a" d="M679.081,678.42a12.752,12.752,0,0,1,1.085-5.2,13.652,13.652,0,0,1,2.971-4.295,14.991,14.991,0,0,1,4.4-2.9,13.438,13.438,0,0,1,5.371-1.085,12.3,12.3,0,0,1,5.142,1.085,15.2,15.2,0,0,1,4.286,2.9,13.663,13.663,0,0,1,2.971,4.295,12.752,12.752,0,0,1,1.085,5.2,12.976,12.976,0,0,1-4.056,9.542,14.31,14.31,0,0,1-4.286,2.8,12.881,12.881,0,0,1-5.142,1.028,14.23,14.23,0,0,1-9.77-3.828,12.86,12.86,0,0,1-2.971-4.229A13,13,0,0,1,679.081,678.42Zm.457,17.37h26.4v60.105h-26.4Z" transform="translate(-601.606 -664.936)"/><path class="a" d="M682.693,699.432A37.772,37.772,0,0,1,684.464,688a32.285,32.285,0,0,1,5.209-10.046,26.091,26.091,0,0,1,8.561-7.2,24.926,24.926,0,0,1,11.884-2.743,25.652,25.652,0,0,1,9.427,1.819,17.055,17.055,0,0,1,7.6,5.847h.342v-6.065h24.8v53.935q0,9.812-3.2,16.34a27.259,27.259,0,0,1-8.513,10.342,32.723,32.723,0,0,1-12.055,5.361,60.724,60.724,0,0,1-13.713,1.542,68.137,68.137,0,0,1-17.131-2.219,47.5,47.5,0,0,1-14.979-6.58l11.542-17.483a29.9,29.9,0,0,0,9.141,4.857,29.588,29.588,0,0,0,9.142,1.543,19.206,19.206,0,0,0,5.437-.743,14.005,14.005,0,0,0,4.5-2.161,10.7,10.7,0,0,0,3.085-3.542,10.1,10.1,0,0,0,1.143-4.857v-2.628h-.343a18.372,18.372,0,0,1-6.447,4.447,23.321,23.321,0,0,1-9.779,1.952,27.761,27.761,0,0,1-12.1-2.457,24.653,24.653,0,0,1-8.58-6.637,27.452,27.452,0,0,1-5.085-9.646A39.694,39.694,0,0,1,682.693,699.432Zm24.464,0a10.788,10.788,0,0,0,2.5,7.256c1.676,1.933,4.113,2.914,7.313,2.914a9.832,9.832,0,0,0,7.484-2.97,10.132,10.132,0,0,0,2.8-7.2,9.865,9.865,0,0,0-10.284-9.942c-3.2,0-5.638.981-7.313,2.971A10.458,10.458,0,0,0,707.156,699.432Z" transform="translate(-570.823 -638.755)"/><path class="a" d="M734.1,690.1a21.469,21.469,0,0,1,10.427,2.286,18.65,18.65,0,0,1,6.6,5.875,22.751,22.751,0,0,1,3.419,8.066,41.692,41.692,0,0,1,.971,8.913V751.8H729.112v-32c0-3.037-.467-5.18-1.419-6.408a5.135,5.135,0,0,0-4.285-1.82,5.472,5.472,0,0,0-4.114,2c-1.219,1.324-1.828,3.447-1.828,6.342V751.8h-26.4V665.416h26.4v32.9h.228a19.825,19.825,0,0,1,6.494-5.761A19.3,19.3,0,0,1,734.1,690.1Z" transform="translate(-499.439 -660.845)"/><path class="a" d="M730.649,741.949q-12.113,0-17.94-5.209-5.827-5.185-5.837-16.16V699.1h-8.447V680.244h8.342V666.76h25.586v13.484H745.38V699.1H732.353v16c0,2.9.638,4.856,1.9,5.875a7.833,7.833,0,0,0,5.19,1.543,17.259,17.259,0,0,0,2.638-.219,18.325,18.325,0,0,0,2.162-.457v18.045a22.839,22.839,0,0,1-5.762,1.495A51.56,51.56,0,0,1,730.649,741.949Z" transform="translate(-436.747 -649.39)"/><path class="a" d="M758.739,711.244a18.835,18.835,0,0,1-2.562,10.17,20.237,20.237,0,0,1-6.475,6.571,27.993,27.993,0,0,1-8.589,3.532,39.227,39.227,0,0,1-8.875,1.1,53.27,53.27,0,0,1-15.264-2.237A41.083,41.083,0,0,1,704,724.042l12.912-14.969a22,22,0,0,0,6.457,4.057,18.766,18.766,0,0,0,7.142,1.542,6.315,6.315,0,0,0,2.58-.524,1.859,1.859,0,0,0,1.2-1.876c0-.99-.714-1.771-2.124-2.342a56.291,56.291,0,0,0-7.37-2.114,34.159,34.159,0,0,1-5.828-2,21.347,21.347,0,0,1-5.428-3.486,17.723,17.723,0,0,1-4.056-5.313,16.327,16.327,0,0,1-1.6-7.494,18.28,18.28,0,0,1,2.581-9.932,21.188,21.188,0,0,1,6.5-6.685,28.363,28.363,0,0,1,8.58-3.761,34.8,34.8,0,0,1,8.741-1.209,47.994,47.994,0,0,1,13.827,2.057,46.1,46.1,0,0,1,12.341,5.714l-12.341,14.741a27.571,27.571,0,0,0-5.838-2.857,17.748,17.748,0,0,0-5.828-1.028,8.732,8.732,0,0,0-3.2.5,1.981,1.981,0,0,0-1.257,2.01q0,1.142,1.429,1.771a41.392,41.392,0,0,0,6.533,1.657,34.349,34.349,0,0,1,6.894,2.114,24.668,24.668,0,0,1,6.027,3.647,16.685,16.685,0,0,1,4.266,5.428A16.878,16.878,0,0,1,758.739,711.244Z" transform="translate(-389.2 -639.368)"/><path class="b" d="M794.962,746.894H767.776l-2.295-46.622h-.448l-21.264,46.622H716.926l-6.285-80.9h27.987v46.279h.457l18.969-46.279h27.206l.905,46.279h.457l18.969-46.279h27.539Z" transform="translate(-332.637 -655.936)"/><path class="b" d="M779.344,720.662a47.223,47.223,0,0,0-.638,5.142c-.1,1.752-.161,3.123-.161,4.113H756.6q0-.8.058-2.571t.171-2.914H756.6a19.553,19.553,0,0,1-7.542,5.428,25.51,25.51,0,0,1-9.37,1.657,23.5,23.5,0,0,1-6.4-.915,18.109,18.109,0,0,1-5.78-2.8,14.2,14.2,0,0,1-4.161-4.914,15.37,15.37,0,0,1-1.6-7.256c0-4.646,1.038-8.474,3.142-11.493A22.08,22.08,0,0,1,733.35,697a42.47,42.47,0,0,1,12.285-3.7,94.921,94.921,0,0,1,14.627-1.1,3.092,3.092,0,0,0,.114-.743v-.5a3.865,3.865,0,0,0-2-3.495,10.033,10.033,0,0,0-5.2-1.191,18.08,18.08,0,0,0-7.085,1.429,24.192,24.192,0,0,0-6.295,3.819l-11.189-12.8a32.248,32.248,0,0,1,6.228-4.619,48.387,48.387,0,0,1,7.142-3.38,44.078,44.078,0,0,1,7.418-2.047,40.414,40.414,0,0,1,7.208-.686q13.713,0,20.626,5.542t6.914,15.589a56.7,56.7,0,0,1-.914,9.484Zm-19.768-15.427h-1.5a39.7,39.7,0,0,0-5.361.343,18.591,18.591,0,0,0-4.4,1.086,8.305,8.305,0,0,0-3.028,1.942,4.2,4.2,0,0,0-1.143,3.028c0,1.752.552,2.866,1.647,3.371a8.616,8.616,0,0,0,3.6.743,9.362,9.362,0,0,0,6.466-2.4,10.563,10.563,0,0,0,3.362-6.171Z" transform="translate(-237.943 -638.959)"/><path class="b" d="M766.68,728.281H738.8l-10.17-60.105H755.6l2.286,33.252h.457l15.2-33.252h28.339Z" transform="translate(-179.343 -637.323)"/><path class="b" d="M758.96,705.8a2.585,2.585,0,0,0-.115.8,4.689,4.689,0,0,0,1.019,3.143,8.15,8.15,0,0,0,2.524,1.952,11.15,11.15,0,0,0,3.2,1.029,19.973,19.973,0,0,0,3.085.286,16.481,16.481,0,0,0,5.6-.981,13.771,13.771,0,0,0,4.913-3.019l17.255,11.875a32.359,32.359,0,0,1-13.608,8.465,52.744,52.744,0,0,1-15.883,2.4,42.74,42.74,0,0,1-12.161-1.714,29.53,29.53,0,0,1-10.065-5.142,24.825,24.825,0,0,1-6.789-8.514,26.625,26.625,0,0,1-2.514-11.931,37.348,37.348,0,0,1,2.743-14.35,34.407,34.407,0,0,1,7.713-11.6,36.032,36.032,0,0,1,11.884-7.723,40.467,40.467,0,0,1,15.255-2.79,35.044,35.044,0,0,1,11.885,1.885,25.006,25.006,0,0,1,8.913,5.37,23.693,23.693,0,0,1,5.656,8.456,29.782,29.782,0,0,1,1.99,11.142,39.8,39.8,0,0,1-.4,5.485,32.194,32.194,0,0,1-1.2,5.476Zm20.225-13.6a2.572,2.572,0,0,0,.1-.743v-.637a5.7,5.7,0,0,0-2.1-4.637,9.027,9.027,0,0,0-5.895-1.743,10.781,10.781,0,0,0-4.285.809,12.924,12.924,0,0,0-3.247,1.972,11.283,11.283,0,0,0-2.229,2.495,9.952,9.952,0,0,0-1.2,2.485Z" transform="translate(-121.458 -638.959)"/></g></g></svg>