<svg xmlns="http://www.w3.org/2000/svg" width="320" height="320" viewBox="0 0 320 320"><defs><style>.a{fill:#fbfe67;}.b{fill:#596c76;}.c{fill:#465a61;}.d{fill:#ffdf40;}.e{fill:#ffbe40;}.f{fill:#f36a3d;}.g{fill:#ec4c36;}</style></defs><g transform="translate(-420 -909)"><circle class="a" cx="160" cy="160" r="160" transform="translate(420 909)"/><g transform="translate(500 968.688)"><g transform="translate(56.563 143.5)"><path class="b" d="M213.813,419.125h-18.75A14.062,14.062,0,0,1,181,405.063v-4.687A9.375,9.375,0,0,1,190.375,391H218.5a9.375,9.375,0,0,1,9.375,9.375v4.688A14.062,14.062,0,0,1,213.813,419.125Z" transform="translate(-181 -391)"/></g><path class="c" d="M270.063,391H256v28.125h9.375a14.062,14.062,0,0,0,14.063-14.062v-4.687A9.375,9.375,0,0,0,270.063,391Z" transform="translate(-176 -247.5)"/><g transform="translate(28.438 31)"><path class="d" d="M166,152.875H119.125v-14.25A18.727,18.727,0,0,0,111.7,123.8,51.014,51.014,0,0,1,91,82.563a51.563,51.563,0,0,1,103.125,0A51.039,51.039,0,0,1,173.4,123.821a18.7,18.7,0,0,0-7.4,14.8Z" transform="translate(-91 -31)"/></g><path class="e" d="M279.438,152.875v-14.25a18.7,18.7,0,0,1,7.4-14.8,51.039,51.039,0,0,0,20.728-41.258A51.624,51.624,0,0,0,256,31V152.875Z" transform="translate(-176)"/><g transform="translate(0 38.645)"><g transform="translate(0 49.887)"><path class="d" d="M1.63,227.585,0,218.357,19.173,215.1,20.8,224.33Z" transform="translate(0 -215.102)"/></g><g transform="translate(139.198 25.465)"><path class="e" d="M447.063,149.435l-1.629-9.228,19.172-3.255,1.63,9.228Z" transform="translate(-445.434 -136.952)"/></g><g transform="translate(8.651 70.317)"><path class="d" d="M27.682,289.855l16.24-9.377,4.688,8.12-16.24,9.377Z" transform="translate(-27.682 -280.478)"/></g><g transform="translate(130.42)"><path class="e" d="M417.343,64.841l16.24-9.377,4.688,8.12-16.24,9.377Z" transform="translate(-417.343 -55.464)"/></g><g transform="translate(8.644 0.016)"><path class="d" d="M27.66,63.636l4.688-8.12,16.24,9.377L43.9,73.013Z" transform="translate(-27.66 -55.516)"/></g><g transform="translate(130.432 70.343)"><path class="e" d="M417.382,288.682l4.688-8.12,16.24,9.377-4.688,8.12Z" transform="translate(-417.382 -280.562)"/></g><g transform="translate(0 25.465)"><path class="d" d="M19.173,149.435,0,146.18l1.63-9.228L20.8,140.207Z" transform="translate(0 -136.952)"/></g><g transform="translate(139.198 49.887)"><path class="e" d="M464.606,227.585l-19.172-3.255,1.629-9.228,19.172,3.255Z" transform="translate(-445.434 -215.102)"/></g><g transform="translate(-778.009 -24.539)"><g transform="translate(828 51.685)"><g transform="translate(0 0)"><g transform="translate(0 1.315)"><path class="f" d="M841.564,84.627H828V77.845h6.782V57.5h13.564v6.782h-6.782Z" transform="translate(-828 -57.5)"/></g><g transform="translate(20.345)"><path class="f" d="M931.564,86.909H918V80.127h6.782v-19.4l27.127-9.043V80.127H938.346V73.345h6.782V61.1l-13.564,4.52Z" transform="translate(-918 -51.685)"/></g></g></g><path class="g" d="M978,65.616l13.564-4.52V73.345h-6.782v6.782h13.564V51.685L978,58.468Z" transform="translate(-116.091)"/></g></g></g></g></svg>