<svg xmlns="http://www.w3.org/2000/svg" width="320" height="320" viewBox="0 0 320 320"><defs><style>.a{fill:#fbfe67;}.b{fill:#ffd9b3;}.c{fill:#fb9;}.d{fill:#5c7199;}.e{fill:#ff9580;}.f{fill:#4d5680;}</style></defs><g transform="translate(-1180 -909)"><path class="a" d="M160,0A160,160,0,1,1,0,160,160,160,0,0,1,160,0Z" transform="translate(1180 909)"/><g transform="translate(1256 945.21)"><path class="b" d="M146.27,148.229l-6.989,16.833a9.74,9.74,0,0,1-2.855,6.989l-3.445,3.446-6.2,2.854-.787,4.134-8.564,8.565-6.3,3.149-.688,3.839-3.545,3.544a8.188,8.188,0,0,1-2.067,1.575,9.432,9.432,0,0,1-4.922,1.28,9.6,9.6,0,0,1-6.792-2.757L57.479,167.818a9.436,9.436,0,0,0-6.792-2.756H31L40.844,106H94.984l9.844,8.072Z" transform="translate(-20.828)"/><path class="c" d="M297.443,164.757l-6.989,16.833a9.741,9.741,0,0,1-2.855,6.989l-3.445,3.446-6.2,2.854-.787,4.134-8.564,8.565-6.3,3.149-.688,3.839-3.545,3.544A8.188,8.188,0,0,1,256,219.686V130.6Z" transform="translate(-172.001 -16.528)"/><g transform="translate(0 106)"><path class="d" d="M20.016,184.75H0V106H20.016Z" transform="translate(0 -106)"/><g transform="translate(80.456 76.191)"><path class="c" d="M261.344,347.059l-6.989,6.989-9.155-8.761,6.793-7.087Z" transform="translate(-245.2 -338.2)"/></g><g transform="translate(96.107 60.539)"><path class="e" d="M308.945,299.457l-6.989,6.989L292.9,297.39l6.989-6.891Z" transform="translate(-292.899 -290.499)"/></g></g><path class="c" d="M219.88,165.063a9.778,9.778,0,0,0-2.855-6.989l-32.482-32.386h-4.085l-2.288,1.456L167.806,137.6a10.258,10.258,0,0,1-13.968,0,9.936,9.936,0,0,1-.01-13.977l14.766-14.766A10.122,10.122,0,0,1,175.583,106h73.828l10.172,59.063Z" transform="translate(-101.426)"/><path class="e" d="M256,341.59v7.088l5.612,5.37,6.989-6.989-9.351-8.859Z" transform="translate(-172 -156.009)"/><path class="e" d="M256,106v20.57l31.6,31.5a9.778,9.778,0,0,1,2.855,6.989h39.7L319.984,106Z" transform="translate(-172)"/><g transform="translate(147.984 106)"><path class="f" d="M471.016,184.75H451V106h20.016Z" transform="translate(-451 -106)"/></g></g></g></svg>