<svg xmlns="http://www.w3.org/2000/svg" width="320" height="320" viewBox="0 0 320 320"><defs><style>.a{fill:#fbfe67;}.b{fill:#f3f5f9;}.c{fill:#e1e6f0;}.d{fill:#596c76;}.e{fill:#465a61;}.f{fill:#8cd96b;}.g{fill:#f36a3d;}.h{fill:#5ab267;}.i{fill:#ec4c36;}</style></defs><g transform="translate(-806 -909)"><circle class="a" cx="160" cy="160" r="160" transform="translate(806 909)"/><g transform="translate(887 989)"><g transform="translate(0 16)"><g transform="translate(55.855 111.094)"><path class="b" d="M227.289,408.4H181V376h46.289Z" transform="translate(-181 -376)"/></g><path class="c" d="M256,376h23.145v32.4H256Z" transform="translate(-177 -264.906)"/><path class="d" d="M158,136.352H0V16H158Z" transform="translate(0 -16)"/><path class="e" d="M256,16h79V136.352H256Z" transform="translate(-177 -16)"/><path class="b" d="M30,46H169.484V147.836H30Z" transform="translate(-20.742 -36.742)"/><path class="c" d="M256,46h69.742V147.836H256Z" transform="translate(-177 -36.742)"/><g transform="translate(9.258 72.146)"><path class="f" d="M169.484,260.964v9.258H138.69L127.516,281.4,109,262.881,90.484,281.4,71.969,262.881l-7.341,7.341H30v-9.258H60.795L71.969,249.79l18.516,18.516L109,249.79l18.516,18.516,7.341-7.341Z" transform="translate(-30 -249.79)"/></g><g transform="translate(32.711 16.721)"><g transform="translate(0 1.794)"><path class="g" d="M124.516,113.031H106v-9.258h9.258V76h18.516v9.258h-9.258Z" transform="translate(-106 -76)"/></g><g transform="translate(27.773)"><path class="g" d="M214.516,118.269H196v-9.258h9.258V82.53l37.031-12.345v38.826H223.773V99.753h9.258V83.032L214.516,89.2Z" transform="translate(-196 -70.185)"/></g></g><g transform="translate(37.34 138.867)"><path class="d" d="M121,466h83.32v9.258H121Z" transform="translate(-121 -466)"/></g><path class="e" d="M256,466h41.66v9.258H256Z" transform="translate(-177 -327.133)"/></g><path class="h" d="M256,271.928l9.258-9.258,18.516,18.516,11.174-11.174h30.795v-9.258H291.115l-7.341,7.341L265.258,249.58,256,258.838Z" transform="translate(-177 -161.499)"/><path class="i" d="M256,89.2l18.516-6.171V99.753h-9.258v9.258h18.516V70.185L256,79.444Z" transform="translate(-177 -37.464)"/></g></g></svg>