<svg xmlns="http://www.w3.org/2000/svg" width="461.221" height="295.297" viewBox="0 0 461.221 295.297"><defs><style>.a{fill:#f4a28c;}.b{fill:#e4e4e4;}.c,.d,.i{fill:#fbfe67;}.c,.h{opacity:0.08;}.c,.f,.h,.i{isolation:isolate;}.e{fill:#565fd5;}.f{fill:#ce8172;opacity:0.31;}.g{fill:#24285b;}.i{opacity:0.46;}.j{fill:#fff;}</style></defs><g transform="translate(-1042.778 -6633.704)"><g transform="translate(974.164 6570.42)"><path class="a" d="M184.718,114.893s9.474-3.543,11.739-5.2c2.89-2.1,10.948-9.032,6.706-11.344-1.885-1.034-9.838,3.909-9.838,3.909s1.125-5.885-.653-4.562-4.942,7.04-4.942,7.04l-7.8,3.983Z" transform="translate(55.447 17.045)"/><path class="a" d="M174.58,83.76a36.428,36.428,0,0,0,5.109-5.109c.746-1.414,1.216-8.364,2.282-9.944s3.756-1.978,4.288-.9a10.014,10.014,0,0,1,.655,3.118s1.17-2.052,1.414-1.263A20.413,20.413,0,0,1,185.939,80c-2.372,4.562-6.858,11.071-6.858,11.071Z" transform="translate(52.782 1.952)"/><path class="b" d="M105.814,103.033s76.956-.745,104.676-26.777l5.931,6.523s-9.368,21.9-44.447,37-57.051,14.568-57.051,14.568Z" transform="translate(18.53 6.462)"/><path class="c" d="M105.814,103.033s76.956-.745,104.676-26.777l5.931,6.523s-9.368,21.9-44.447,37-57.051,14.568-57.051,14.568Z" transform="translate(18.53 6.462)"/><path class="d" d="M88.2,225.461s-1.748,4.228.9,7.086.851,6.356-2.4,4.73-6.888-11.01-6.888-11.01l5.034-5.049Z" transform="translate(5.576 78.668)"/><path class="d" d="M176.778,182.476s4.47.957,6.812-2.175,6.082-1.976,5.094,1.521-9.594,8.759-9.594,8.759l-5.87-4.03Z" transform="translate(52.105 57.378)"/><path class="a" d="M110.446,72.875a48.663,48.663,0,0,1,.381,13.046,3.953,3.953,0,0,1-4.562,3.209,8.709,8.709,0,0,1-7.314-6.082L96.076,76.4a7.039,7.039,0,0,1,2.509-7.754C102.843,65.2,109.959,68.116,110.446,72.875Z" transform="translate(13.517 1.92)"/><path class="a" d="M97.021,74.175,94.984,99.842l14.217.106-4.227-18.718Z" transform="translate(13.135 5.425)"/><path class="e" d="M108.865,75.281a31.371,31.371,0,0,1-7.269,0,6.527,6.527,0,0,1,.563,7.162,5.324,5.324,0,0,1-6.25,2.616l-.67-10.066a8.014,8.014,0,0,1,3.483-7.422,30.584,30.584,0,0,1,3.239-1.915c2.8-1.384,7.192.213,9.64-1.948a1.9,1.9,0,0,1,3.041,1c.7,3.041.532,7.892-3.483,9.885A7.368,7.368,0,0,1,108.865,75.281Z" transform="translate(13.243 0)"/><path class="a" d="M101.714,76.739s-.289-3.041-2.539-2.6-1.856,4.759,1.261,4.927Z" transform="translate(14.51 5.385)"/><path class="a" d="M106.365,74.256l2.418,2.843a1.261,1.261,0,0,1-.638,2.037l-2.95.791Z" transform="translate(18.221 5.465)"/><path class="f" d="M103.99,82.384a9.28,9.28,0,0,1-4.8-2.373s.577,4.685,6.082,8.911Z" transform="translate(15.228 8.332)"/><path class="d" d="M105.5,91.475l9.67.091a61,61,0,0,0,7.056-.334c7.512-.837,29.97-1.308,41.283,20.344,13.685,26.26-12.894,76.622-12.894,76.622l-48.75,3.954S36.538,99.412,105.5,91.475Z" transform="translate(2.622 13.777)"/><path class="g" d="M92.558,162.1s3.163,30.716,26.139,27.492,54.649-32.2,93.972,11.664l6.446-7.3s-20.482-45.1-74.508-42.576Z" transform="translate(11.927 43.83)"/><path class="g" d="M100.877,157.831s30.412,45.953-19.768,90.7l6.446,8.5s54.315-25.926,47.914-95.705Z" transform="translate(6.224 47.095)"/><path class="h" d="M113.022,108.086s3.892,11.284-5.246,30.305,19.038,40.022,19.038,40.022l-25.546,5.261s-20.5-30.639-25.713-53.22,36.281-21.836,36.281-21.836Z" transform="translate(3.231 22.316)"/><path class="b" d="M92.13,99.3c23.508-3.543,74.645,28.009,143.649,5.625l2.022,10.842s-58.741,29.3-130.542,27.143C68.941,141.738,68.607,102.841,92.13,99.3Z" transform="translate(3.748 17.799)"/><path class="i" d="M92.13,99.3c23.508-3.543,74.645,28.009,143.649,5.625l2.022,10.842s-58.741,29.3-130.542,27.143C68.941,141.738,68.607,102.841,92.13,99.3Z" transform="translate(3.748 17.799)"/><path class="j" d="M68.614,292.639,302.388,173.791V217.9L456.529,136.75l2.372,50.27L244.423,296.836l5.641-55.7L75.624,321.987Z" transform="translate(0 36.594)"/><path class="j" d="M308.986,248.913V132.5L410.1,116.653Z" transform="translate(119.731 26.584)"/></g><g transform="translate(-9795.792 1656.383)"><path class="d" d="M-61.182-38.232H-36.5v5.94H-54.378v10.476H-37.53v5.724H-54.378V0h-6.8Zm30.942,0h13.284a23.953,23.953,0,0,1,5.238.567A13.471,13.471,0,0,1-7.209-35.8,9.72,9.72,0,0,1-4.05-32.4a10.3,10.3,0,0,1,1.188,5.13,9.765,9.765,0,0,1-2.349,6.777,11.829,11.829,0,0,1-6.4,3.537L-1.4,0H-9.612l-8.856-16.2h-4.968V0h-6.8Zm12.366,16.47a19.872,19.872,0,0,0,2.916-.216,8.419,8.419,0,0,0,2.619-.81,5.114,5.114,0,0,0,1.917-1.7,4.923,4.923,0,0,0,.756-2.835,4.361,4.361,0,0,0-.7-2.565,5.227,5.227,0,0,0-1.782-1.593,7.453,7.453,0,0,0-2.457-.81,17.244,17.244,0,0,0-2.673-.216h-6.156v10.746Zm21.6-16.47H29.052v5.94H10.53v9.72H28.08v5.724H10.53v10.8H30.024V0H3.726Zm32.94,0H61.992v5.94H43.47v9.72H61.02v5.724H43.47v10.8H62.964V0h-26.3Z" transform="translate(11143.236 5061.183) rotate(-20)"/><path class="d" d="M3.66-13.542H-3.66V-43.188H3.66ZM-4.88-4.27A4.53,4.53,0,0,1-3.446-7.625,4.751,4.751,0,0,1,0-9.028,4.9,4.9,0,0,1,3.416-7.686,4.3,4.3,0,0,1,4.88-4.392,4.53,4.53,0,0,1,3.447-1.037,4.751,4.751,0,0,1,0,.366,4.818,4.818,0,0,1-1.86,0,5.305,5.305,0,0,1-3.416-.976,4.535,4.535,0,0,1-4.484-2.44,4.292,4.292,0,0,1-4.88-4.27Z" transform="translate(11225.821 5033)"/></g></g></svg>