<svg xmlns="http://www.w3.org/2000/svg" width="350.8" height="286.919" viewBox="0 0 350.8 286.919"><defs><style>.a{fill:#ffd200;}.b,.l{opacity:0.08;}.b,.e,.f{isolation:isolate;}.c{fill:#f4a28c;}.d{fill:#e4e4e4;}.e,.h{fill:#fbfe67;}.e{opacity:0.46;}.f{fill:#ce8172;opacity:0.31;}.g{fill:#565fd5;}.i{fill:#449ccb;}.j{fill:#24285b;}.k{fill:#fff;}</style></defs><g transform="translate(-91.028 -49.097)"><path class="a" d="M271.572,203.8v18.225c0,8.256-23.03,14.877-51.417,14.877s-51.386-6.785-51.371-15.041V203.638Z" transform="translate(50.728 71.976)"/><path class="a" d="M271.555,218.8v18.224c0,8.258-23.044,14.877-51.43,14.877s-51.386-6.783-51.371-15.04V218.64Z" transform="translate(50.714 78.963)"/><path class="b" d="M271.555,218.8v18.224c0,8.258-23.044,14.877-51.43,14.877s-51.386-6.783-51.371-15.04V218.64Z" transform="translate(50.714 78.963)"/><ellipse class="a" cx="14.818" cy="50.925" rx="14.818" ry="50.925" transform="translate(219.427 311.832) rotate(-89.9)"/><path class="b" d="M271.572,203.8v18.225c0,8.256-23.03,14.877-51.417,14.877s-51.386-6.785-51.371-15.041V203.638Z" transform="translate(50.728 71.976)"/><path class="a" d="M269.058,188.963v18.224c0,8.258-23.044,14.877-51.43,14.877s-51.386-6.783-51.371-15.04V188.8Z" transform="translate(49.551 65.065)"/><path class="a" d="M271.621,173.976V192.2c0,8.257-23.03,14.877-51.415,14.877s-51.386-6.783-51.371-15.041V173.828Z" transform="translate(50.752 58.092)"/><ellipse class="a" cx="14.818" cy="50.925" rx="14.818" ry="50.925" transform="translate(219.471 290.059) rotate(-89.9)"/><path class="b" d="M269.058,188.963v18.224c0,8.258-23.044,14.877-51.43,14.877s-51.386-6.783-51.371-15.04V188.8Z" transform="translate(49.551 65.065)"/><ellipse class="a" cx="14.818" cy="50.925" rx="14.818" ry="50.925" transform="translate(215.79 268.479) rotate(-89.9)"/><path class="b" d="M271.621,173.976V192.2c0,8.257-23.03,14.877-51.415,14.877s-51.386-6.783-51.371-15.041V173.828Z" transform="translate(50.752 58.092)"/><ellipse class="a" cx="14.818" cy="51.416" rx="14.818" ry="51.416" transform="translate(219.532 246.734) rotate(-89.9)"/><path class="a" d="M356.936,201.3v20.4c0,9.239-25.8,16.692-57.561,16.632s-57.516-7.587-57.5-16.825v-20.4Z" transform="translate(84.769 70.799)"/><path class="a" d="M356.9,218.072v20.4c0,9.255-25.782,16.693-57.56,16.648s-57.516-7.587-57.5-16.841v-20.4Z" transform="translate(84.755 78.609)"/><path class="b" d="M356.9,218.072v20.4c0,9.255-25.782,16.693-57.56,16.648s-57.516-7.587-57.5-16.841v-20.4Z" transform="translate(84.755 78.609)"/><ellipse class="a" cx="16.588" cy="56.995" rx="16.588" ry="56.995" transform="translate(326.559 312.415) rotate(-89.9)"/><path class="b" d="M356.936,201.3v20.4c0,9.239-25.8,16.692-57.561,16.632s-57.516-7.587-57.5-16.825v-20.4Z" transform="translate(84.769 70.799)"/><path class="a" d="M354.1,184.668v20.4c0,9.253-25.782,16.692-57.561,16.648s-57.516-7.588-57.5-16.841v-20.4Z" transform="translate(83.45 63.051)"/><path class="a" d="M356.986,167.91v20.4c0,9.239-25.782,16.692-57.56,16.633s-57.516-7.588-57.5-16.827v-20.4Z" transform="translate(84.793 55.247)"/><ellipse class="a" cx="16.588" cy="56.995" rx="16.588" ry="56.995" transform="translate(326.604 288.063) rotate(-89.9)"/><path class="b" d="M354.1,184.668v20.4c0,9.253-25.782,16.692-57.561,16.648s-57.516-7.588-57.5-16.841v-20.4Z" transform="translate(83.45 63.051)"/><ellipse class="a" cx="16.588" cy="56.995" rx="16.588" ry="56.995" transform="translate(322.505 263.905) rotate(-89.9)"/><path class="b" d="M356.986,167.91v20.4c0,9.239-25.782,16.692-57.56,16.633s-57.516-7.588-57.5-16.827v-20.4Z" transform="translate(84.793 55.247)"/><ellipse class="a" cx="16.588" cy="57.545" rx="16.588" ry="57.545" transform="translate(326.679 239.552) rotate(-89.9)"/><path class="c" d="M276.922,62.215s6.725-12.809,8.019-11.9a3.109,3.109,0,0,1,.967,2.841s3.839-6.114,6.769-3.332-1.249,11.44-8.063,14.7Z" transform="translate(101.092 0)"/><path class="d" d="M213.038,97.706s61.993-5.951,92.923-42.207l12.408,5.7s-13.344,24.145-30.781,40.852c-31.777,30.38-67.855,33.98-67.855,33.98Z" transform="translate(71.339 2.982)"/><path class="e" d="M213.038,97.706s61.993-5.951,92.923-42.207l12.408,5.7s-13.344,24.145-30.781,40.852c-31.777,30.38-67.855,33.98-67.855,33.98Z" transform="translate(71.339 2.982)"/><path class="c" d="M115.4,58.509s-3.675-7.439-4.969-6.5a3.109,3.109,0,0,0-.967,2.841s-3.823-6.114-6.754-3.332,1.236,11.425,7.99,14.624Z" transform="translate(19.509 0.789)"/><path class="c" d="M217.852,62.663a45.731,45.731,0,0,1,1.636,12.125,3.675,3.675,0,0,1-3.909,3.425l-.034,0a8.154,8.154,0,0,1-7.439-4.865l-3.332-5.951a6.589,6.589,0,0,1,1.577-7.439C209.862,56.267,216.87,58.29,217.852,62.663Z" transform="translate(67.24 4.163)"/><path class="c" d="M207.4,65.446,201.63,88.863l13.122,2.261-1.026-17.481Z" transform="translate(66.026 7.614)"/><path class="c" d="M214.33,64.289l2.545,2.41a1.19,1.19,0,0,1,.031,1.683,1.176,1.176,0,0,1-.418.281l-2.678,1.026Z" transform="translate(71.698 7.076)"/><path class="f" d="M211.717,72.613s-4.463-2.068-5.713-3.9c0,0,.254,9.626,6.219,12.438Z" transform="translate(68.063 9.136)"/><path class="c" d="M209.732,66.427s-.58-2.767-2.634-2.172-1.249,4.627,1.667,4.463Z" transform="translate(68.04 7.021)"/><path class="g" d="M203.082,68.039l1.488,2.649s1.889,6.783,6.427,10.325,10.905,2.782,11.455-1.993c.626-5.491-3.065-4.182-7.988-4.463s-4.166-6.829-4.166-6.829a5.629,5.629,0,0,0,4.657-2.44L217.84,63.8a5.1,5.1,0,0,0,2.251-6.855,4.917,4.917,0,0,0-.407-.673,6.874,6.874,0,0,0-4.328-2.975C210.267,52.477,198.261,60.139,203.082,68.039Z" transform="translate(66.181 1.927)"/><path class="c" d="M207.284,64.032s-3.571-2.114-4.909.728,2.662,5.073,5.37,3.348A5.945,5.945,0,0,1,207.284,64.032Z" transform="translate(66.248 6.604)"/><path class="b" d="M210.247,229.794l4.106-53.662,17.094,2.6,5.1,20.59-3.794,30.469Z" transform="translate(70.039 59.165)"/><path class="h" d="M213.837,207.932s1.829,5.088,6.411,5.475,5.8,4.879,1.667,6.04-14.773-4.136-14.773-4.136l.3-6.621Z" transform="translate(68.592 73.976)"/><path class="h" d="M246.386,162.27c-9.64,18.285-6.769,51.848-6.769,51.848l-51.744-1.488q-1.963-3.555-3.719-7.17c-17.139-34.917-21.394-73.985-18.849-95.824a41.357,41.357,0,0,1,3.346-13.39c7.648-14.952,51.327-15.027,51.327-15.027l13.136,2.262C285.99,105.141,256.011,143.986,246.386,162.27Z" transform="translate(48.792 14.961)"/><path class="i" d="M180.487,172.176l25.291-3.823a24.224,24.224,0,0,1,27.7,26.436l-3.3,32.15H217.77l1.071-30.1a11.4,11.4,0,0,0-13.181-11.679C194.9,186.9,181.558,186.146,180.487,172.176Z" transform="translate(56.179 55.415)"/><path class="h" d="M231.405,207.932s1.831,5.088,6.427,5.475,5.788,4.879,1.652,6.04-14.773-4.136-14.773-4.136l.3-6.621Z" transform="translate(76.775 73.976)"/><path class="b" d="M229.977,204.716l-42.1,1.413-3.6-7.037-.119-.133c-17.139-34.917-21.394-73.985-18.849-95.824l27-7.99s14.342,12.572,11.471,26.452c-.476,2.246-.953,4.954-1.488,7.93a79.249,79.249,0,0,0,18.581,64.865Z" transform="translate(48.792 21.446)"/><path class="i" d="M198.057,172.176l25.291-3.823a24.234,24.234,0,0,1,27.716,26.436l-3.3,32.149H235.354l1.071-30.1a11.38,11.38,0,0,0-13.181-11.679C212.473,186.9,199.128,186.146,198.057,172.176Z" transform="translate(64.362 55.415)"/><path class="d" d="M221.92,98.658s-53.007-9.834-107.637-43.829L106,65.378s56.981,60.238,104.141,68.435C230.563,137.384,248.357,107.316,221.92,98.658Z" transform="translate(21.485 2.67)"/><path class="e" d="M221.92,98.658s-53.007-9.834-107.637-43.829L106,65.378s56.981,60.238,104.141,68.435C230.563,137.384,248.357,107.316,221.92,98.658Z" transform="translate(21.485 2.67)"/><path class="j" d="M323.176,182.365l7.215-40.793H279.214l-4.433,34.768-23.476.327v5.7Z" transform="translate(89.161 43.069)"/><circle class="k" cx="5.118" cy="5.118" r="5.118" transform="translate(386.837 199.071)"/><path class="a" d="M199.022,200.269v20.4c0,9.239-25.8,16.693-57.56,16.633s-57.516-7.588-57.5-16.827v-20.4Z" transform="translate(11.223 70.317)"/><path class="a" d="M198.961,217.007v20.4c0,9.239-25.782,16.692-57.56,16.632s-57.516-7.587-57.5-16.825v-20.4Z" transform="translate(11.194 78.112)"/><path class="b" d="M198.961,217.007v20.4c0,9.239-25.782,16.692-57.56,16.632s-57.516-7.587-57.5-16.825v-20.4Z" transform="translate(11.194 78.112)"/><ellipse class="a" cx="16.588" cy="56.995" rx="16.588" ry="56.995" transform="translate(95.096 310.895) rotate(-89.9)"/><path class="b" d="M199.022,200.269v20.4c0,9.239-25.8,16.693-57.56,16.633s-57.516-7.588-57.5-16.827v-20.4Z" transform="translate(11.223 70.317)"/><path class="a" d="M196.19,183.633v20.4c0,9.24-25.782,16.693-57.56,16.633s-57.516-7.587-57.5-16.825v-20.4Z" transform="translate(9.904 62.569)"/><path class="a" d="M199.073,166.865v20.4c0,9.239-25.782,16.692-57.561,16.648s-57.516-7.6-57.5-16.841v-20.4Z" transform="translate(11.246 54.759)"/><ellipse class="a" cx="16.588" cy="56.995" rx="16.588" ry="56.995" transform="translate(95.141 286.543) rotate(-89.9)"/><path class="b" d="M196.19,183.633v20.4c0,9.24-25.782,16.693-57.56,16.633s-57.516-7.587-57.5-16.825v-20.4Z" transform="translate(9.904 62.569)"/><ellipse class="a" cx="16.588" cy="56.995" rx="16.588" ry="56.995" transform="translate(91.028 262.384) rotate(-89.9)"/><path class="b" d="M199.073,166.865v20.4c0,9.239-25.782,16.692-57.561,16.648s-57.516-7.6-57.5-16.841v-20.4Z" transform="translate(11.246 54.759)"/><circle class="b" cx="42.713" cy="42.713" r="42.713" transform="translate(165.344 250.591)"/><path class="b" d="M153.756,186.495s-44.705,13.643-37.535,81.349c0,0,29.159.982,42.995-2.559C171.58,262.161,153.756,186.495,153.756,186.495Z" transform="translate(25.885 63.992)"/><ellipse class="a" cx="16.588" cy="57.545" rx="16.588" ry="57.545" transform="translate(95.216 238.032) rotate(-89.9)"/><circle class="a" cx="42.713" cy="42.713" r="42.713" transform="translate(165.344 250.591)"/><circle class="b" cx="42.713" cy="42.713" r="42.713" transform="translate(165.344 250.591)"/><g class="l" transform="translate(167.427 237.737)"><circle cx="42.713" cy="42.713" r="42.713"/></g><circle class="a" cx="42.713" cy="42.713" r="42.713" transform="translate(167.427 237.737)"/></g></svg>