<svg xmlns="http://www.w3.org/2000/svg" width="386.195" height="371.922" viewBox="0 0 386.195 371.922"><defs><style>.a{fill:#449ccb;}.b{fill:#e4e4e4;}.c,.f,.h,.i{fill:#fbfe67;}.c{opacity:0.09;}.c,.e,.h,.i,.l,.o,.p,.s,.t{isolation:isolate;}.d{fill:#f4a28c;}.e{fill:#ce8172;opacity:0.31;}.g{fill:#565fd5;}.h{opacity:0.29;}.i,.l,.o{opacity:0.46;}.j{fill:#ffd200;}.k{fill:#68e1fd;}.l,.r,.s{fill:#fff;}.m,.p{fill:#e6e6e6;}.n,.o{fill:#c1c1c1;}.p{opacity:0.45;}.q{fill:#24285b;}.s{opacity:0.49;}.t{fill:#bfbfbf;opacity:0.6;}</style></defs><g transform="translate(-1074.436 -7590)"><g transform="translate(978.305 7577.811)"><path class="a" d="M80.509,181.635l7.3,32.281a29.9,29.9,0,0,1-5.557,24.951l-11.276,14.5,6.8,6.664,22.246-22.418a29.479,29.479,0,0,0,8.437-18.287l3.359-39.786Z" transform="translate(41.533 36.343)"/><path class="b" d="M126.106,108.563l17.514,35.788a13.943,13.943,0,0,0,22.5,3.613l15.275-14.742,7.691,8.957s-14.809,22.659-33.869,32.4-49.208-42.424-49.208-42.424Z" transform="translate(52.502 14.115)"/><path class="c" d="M126.106,108.563l17.514,35.788a13.943,13.943,0,0,0,22.5,3.613l15.275-14.742,7.691,8.957s-14.809,22.659-33.869,32.4-49.208-42.424-49.208-42.424Z" transform="translate(52.502 14.115)"/><path class="d" d="M288.829,84.65s-2.466,7.4-2.386,12.715a3.906,3.906,0,0,0,3.958,3.853h.041a8.61,8.61,0,0,0,8.09-4.758l3.853-6.079a7.012,7.012,0,0,0-1.267-8C297.6,78.3,290.162,80.064,288.829,84.65Z" transform="translate(7.915 -18.129)"/><path class="d" d="M301.857,88.771l-1.946,25.471-13.955-2.079,7.024-17.7Z" transform="translate(7.763 -15.412)"/><path class="d" d="M293.244,90.513s.746-2.906,2.892-2.16,1.079,4.959-2,4.638Z" transform="translate(10.045 -15.581)"/><path class="a" d="M279.342,173.3l-9.677,87.529h9.677l23.578-74.947Z" transform="translate(2.661 11.059)"/><path class="d" d="M288,87.167l-2.746,2.479a1.237,1.237,0,0,0,.307,2.079l2.759,1.24Z" transform="translate(7.408 -15.915)"/><path class="d" d="M296.442,126.75S274.756,125.7,273.89,97.64s31.549-42.225,31.549-42.225,15.021-.88,9.811-9.836-16.794,2.666-16.794,2.666-46.838,11-45.971,50.649,21.98,56.406,21.98,56.406Z" transform="translate(-2.723 -30)"/><path class="e" d="M290.55,96.386a9.342,9.342,0,0,0,5.065-1.586s-1.333,4.491-7.345,7.783Z" transform="translate(8.487 -13.524)"/><path class="d" d="M117.548,74.574s0,7.8-1.76,12.822a4,4,0,0,1-5.011,2.4,8.649,8.649,0,0,1-6.171-7.078l-1.72-6.957a6.972,6.972,0,0,1,3.719-7.171C111.271,65.79,117.788,69.828,117.548,74.574Z" transform="translate(51.504 1.308)"/><path class="d" d="M104.582,74.774l-6.2,24.778,13.9,2.439-1.066-19.007Z" transform="translate(50.115 3.534)"/><path class="d" d="M114.335,76.662l1.894,3.186a1.239,1.239,0,0,1-.947,1.879l-3.012.306Z" transform="translate(54.463 4.125)"/><path class="e" d="M109.5,84.937a9.328,9.328,0,0,1-4.319-3.119s-.2,4.679,4.505,9.716Z" transform="translate(52.244 5.739)"/><path class="f" d="M275.878,114.507s-34.228,23.871-16.9,46,25.244,34.281,25.244,34.281l41.559-4.345s4.771-32.108,14.742-49.023,1.745-29.509-8.677-32.108S306.681,98.019,275.878,114.507Z" transform="translate(-2.219 -10.426)"/><path class="c" d="M297.709,104.7s-19.273,17.208-9.569,35.987,8.37,51.836,8.37,51.836l19.46-2.026s5.225-30.016,11.155-41.852c0,0,5.572-10.17,7.212-15.528S317.5,104.75,317.5,104.75Z" transform="translate(7.592 -10.425)"/><path class="d" d="M315.612,161.88c-15.994,6.664-27.2-16.327-12.382-25.324a90.007,90.007,0,0,1,13.049-6.664c15.914-6.37,39.052-42.238,25.164-66.243,0,0-7.811-14.369,1.159-16.727s6.664,16.153,6.664,16.153,23.112,37.694,2.306,64.564C340.284,142.22,327.768,156.776,315.612,161.88Z" transform="translate(11.001 -28.583)"/><path class="a" d="M322.112,169.991s4.291,12.223-1.493,18.913-38.373,23.751-38.373,23.751l38.373,6.358-2.026,8.97s-43.384,3.186-51.475-9.25,23.658-37.894,23.658-37.894l-10.223-6.5Z" transform="translate(1.45 10.023)"/><path class="g" d="M295.264,89.865s-5.331,27.125,12.208,30.15S330.837,115.35,334.8,108.9s-29.71,1.653-27.112-17.806-14.141-18.58-19.539-12.943S295.264,89.865,295.264,89.865Z" transform="translate(8.026 -19.839)"/><path class="f" d="M273.2,239.955s-8.677,14.861-3.039,15.288,9.677-15.288,9.677-15.288Z" transform="translate(2.22 31.933)"/><path class="f" d="M305.515,216.05s5.145,12.622,9.5,9.023-7.184-16.673-7.184-16.673Z" transform="translate(13.888 22.051)"/><path class="g" d="M101.978,86.333h4.691s5.439-4.638,4.505-10.916c0,0,5.052,3.559,8.944,0s1.093-10.063-4.146-11.742S95.62,60.969,101.978,86.333Z" transform="translate(50.76 -0.175)"/><path class="a" d="M74.61,158.329s-8.171,26.4,7.264,32.255S130.71,274.62,130.71,274.62l11.05-4.238s-21.326-68.069-19.713-95.287Z" transform="translate(41.993 29.7)"/><path class="f" d="M106.4,93.643l13.9,2.439s26.525,10.3,29.323,35.708-27.63,63.564-27.63,63.564L76.45,180.039S57.35,97.241,106.4,93.643Z" transform="translate(42.1 9.443)"/><path class="b" d="M113.005,118.111A16.168,16.168,0,0,0,89.733,99.237a47.9,47.9,0,0,0-22.366,25.538c-11.342,29.936-16.634,69.455,14.6,65.124s49.208-19.82,49.208-19.82L126.4,158.8s-41.186,19.512-44.437,7.263C79.537,156.938,106.261,140.757,113.005,118.111Z" transform="translate(37.626 10.565)"/><path class="h" d="M113.005,118.111A16.168,16.168,0,0,0,89.733,99.237a47.9,47.9,0,0,0-22.366,25.538c-11.342,29.936-16.634,69.455,14.6,65.124s49.208-19.82,49.208-19.82L126.4,158.8s-41.186,19.512-44.437,7.263C79.537,156.938,106.261,140.757,113.005,118.111Z" transform="translate(37.626 10.565)"/><path class="d" d="M111,146.308s13.2-4.293,14.568,2.959-10.836,5.838-10.836,5.838Z" transform="translate(54.066 25.54)"/><path class="d" d="M165.039,130.8s4.239-8.344,10.862-6.411-5.93,12.156-5.93,12.156Z" transform="translate(70.989 18.979)"/><path class="f" d="M119.07,247.093l3.771,6.9,11.662-6.957a2.333,2.333,0,0,0-.945-4.319C129.159,242.241,123.281,242.748,119.07,247.093Z" transform="translate(56.593 56.082)"/><path class="f" d="M75.171,236.392l-6.811,4,7.238,11.49a2.332,2.332,0,0,0,4.291-1.053C80.223,246.363,79.623,240.5,75.171,236.392Z" transform="translate(40.713 54.146)"/></g><g transform="translate(1132.383 7707.178)"><path class="b" d="M172.073,193.833l-23.061-36.641-10.15,4.831s8.587,44,23.142,44.66S172.073,193.833,172.073,193.833Z"/><path class="i" d="M172.073,193.833l-23.061-36.641-10.15,4.831s8.587,44,23.142,44.66S172.073,193.833,172.073,193.833Z"/><path class="b" d="M222.9,139.2s-59.885-20.462-55.51,50.253Z"/><path class="i" d="M167.394,189.449,222.9,139.2s-59.885-20.462-55.51,50.253"/><path class="d" d="M239.54,110.37s-5.075,6.161-6.922,11.266a4,4,0,0,0,2.38,5.131l.015.005c2.588.9,6.354,1.381,9.45-1.593l5.9-4.4a7.1,7.1,0,0,0,1.705-8.12C250.208,107.548,242.443,106.5,239.54,110.37Z"/><path class="d" d="M248.431,118.825l-4.649,25.669-13.966-3.573,8.993-17.245Z"/><path class="j" d="M241,111.8a31.991,31.991,0,0,0,6.374,3.674,6.618,6.618,0,0,0-4.111,6.009,5.41,5.41,0,0,0,4.172,5.471l5.663-8.516a8.119,8.119,0,0,0,.691-8.292,30.934,30.934,0,0,0-1.878-3.3c-1.766-2.639-6.435-3.451-7.491-6.587a1.917,1.917,0,0,0-3.217-.68c-2.142,2.314-4.446,6.668-1.929,10.444A7.521,7.521,0,0,0,241,111.8Z"/><path class="d" d="M242.7,120.814s1.776-2.5,3.542-1.015-.782,5.075-3.593,3.695Z"/><path class="d" d="M236.576,114.43l-3.562,1.279a1.278,1.278,0,0,0-.467,2.1L234.729,120Z"/><path class="e" d="M236.678,127.371A9.468,9.468,0,0,0,242,126.285s-1.776,4.436-8.272,7.1Z"/><path class="f" d="M280.384,178.842c-1.076-17.062-27.314-32.368-43.879-36.6l-6.191-1.583S187.288,127.919,172.55,166.2s-6.009,74.531-6.009,74.531L237.52,248.9S282.8,217.1,280.384,178.842Z"/><path class="k" d="M249.751,147.357s2.466-6.963-5.928-10.333S226.995,130.4,222.9,139.2C222.9,139.2,229.806,146.24,249.751,147.357Z"/><path class="l" d="M249.751,147.357s2.466-6.963-5.928-10.333S226.995,130.4,222.9,139.2C222.9,139.2,229.806,146.24,249.751,147.357Z"/><path class="b" d="M304.581,105.346s50.07,90.457,4.558,108.96c-36.1,14.687-63.9-11.571-61.865-40.955a15.225,15.225,0,0,1,27.4-8.191,45.508,45.508,0,0,1,8.344,18.767c5.237,26.065,22.38,5.978,20.158-13.987S304.581,105.346,304.581,105.346Z"/><path class="i" d="M304.581,105.346s50.07,90.457,4.558,108.96c-36.1,14.687-63.9-11.571-61.865-40.955a15.225,15.225,0,0,1,27.4-8.191,45.508,45.508,0,0,1,8.344,18.767c5.237,26.065,22.38,5.978,20.158-13.987S304.581,105.346,304.581,105.346Z"/><path class="m" d="M86.113,49.846l8.566,204.9,215.769-9.024-8.567-204.9ZM295.669,176.223l-192.383,8.039L99.693,98.3l192.373-8.049Z"/><circle class="n" cx="12.525" cy="12.525" r="12.525" transform="translate(102.556 60.97)"/><path class="o" d="M140.07,74.315l36.772-1.535a3.045,3.045,0,0,1,3.169,2.916h0a3.044,3.044,0,0,1-2.915,3.169L140.324,80.4a3.045,3.045,0,0,1-3.169-2.916h0A3.045,3.045,0,0,1,140.07,74.315Z"/><path class="d" d="M304.987,115.171s6.435-17.011-3.167-19.285S299.577,111.2,304.987,115.171Z"/><path class="d" d="M149.012,157.192a44.274,44.274,0,0,1-9.135-14.139c-2.882-7.927-6.75-1.279-4.243,3.045s-8.779.883-6.9,8.587,10.079,7.359,10.079,7.359Z"/><rect class="p" width="73.801" height="7.237" transform="translate(116.643 111.09) rotate(-2.39)"/><circle class="j" cx="13.276" cy="13.276" r="13.276" transform="translate(108.037 191.387)"/><circle class="q" cx="13.276" cy="13.276" r="13.276" transform="translate(146.373 189.784)"/><rect class="o" width="185.552" height="28.044" transform="translate(108.903 226.084) rotate(-2.39)"/><path class="r" d="M162.583,197.284a3.35,3.35,0,0,0-2.03.873,4.689,4.689,0,0,0-1.1,1.553,4.743,4.743,0,0,0-1.329-1.36,3.4,3.4,0,0,0-2.132-.558,3.816,3.816,0,0,0-3.419,4.176c0,.053.012.1.019.158.193,2.487,2.324,4.06,5.542,6.364l1.817,1.33a.506.506,0,0,0,.294.091.523.523,0,0,0,.284-.132c.559-.578,1.107-1.116,1.584-1.593,2.821-2.812,4.679-4.669,4.486-7.156a3.815,3.815,0,0,0-3.881-3.75C162.675,197.28,162.629,197.282,162.583,197.284Z"/><rect class="s" width="5.268" height="7.947" transform="translate(114.247 202.812) rotate(-2.39)"/><path class="r" d="M119.557,203.182s3.359-1.736,4.263-4.771a1.187,1.187,0,0,1,2.192-.132,3.212,3.212,0,0,1,.173,2.121c-.65,3.045,2.547,1.107,3.38,2.365s3.552,8.323-9.734,7.1Z"/><circle class="t" cx="3.755" cy="3.755" r="3.755" transform="translate(258.769 203.709) rotate(-80.783)"/><circle class="t" cx="3.756" cy="3.756" r="3.756" transform="translate(270.883 196.34)"/><circle class="t" cx="3.756" cy="3.756" r="3.756" transform="translate(282.769 195.813)"/></g></g></svg>