<svg xmlns="http://www.w3.org/2000/svg" width="320" height="157.776" viewBox="0 0 320 157.776"><defs><style>.a{fill:#edbe00;}.b{fill:#ffd322;}.c{fill:#ffe377;}.d{fill:#ff3939;}.e{fill:#ff5b5b;}.f{fill:#fbfe67;}.g{fill:#71390f;}.h{fill:#8e4813;}.i{fill:#fb0023;}.j{fill:#ff9000;}.k{fill:#ffb555;}.l{fill:#dc7d00;}.m{fill:#c46e06;}</style></defs><g transform="translate(-476.36 -283.584)"><g transform="translate(662.075 283.584)"><g transform="translate(17.71)"><g transform="translate(54.051 20.412)"><path class="a" d="M1336.676,376.255l-.056-26.431h-4.444a15.218,15.218,0,0,0-15.217,15.217l-5.066,5.553v40.6l5.066,4.992,3.116,2.562h14.057l2.533-6.7,4.391-2.85v-29.37Z" transform="translate(-1311.894 -349.824)"/><path class="b" d="M1407.5,387.876a15.217,15.217,0,0,0-15.208,14.7l-.009,35.792,4.054,6.7h11.089l4.518-7.705V387.864Z" transform="translate(-1367.511 -376.142)"/></g><g transform="translate(0 7.822)"><path class="b" d="M1192.92,308.967h-4.444v27.806l-5.264,6.707v31.366l5.264,8.688,3.653,6.942h10.7l5.307-2.778,6.075-13.789V328.75l-6.075-4.168A15.421,15.421,0,0,0,1192.92,308.967Z" transform="translate(-1168.816 -308.967)"/><path class="c" d="M1140.938,349.824h-4.444v61.215l3.906,7.705h12.8l2.956-6.836V365.041A15.217,15.217,0,0,0,1140.938,349.824Z" transform="translate(-1136.494 -337.234)"/></g><g transform="translate(39.321)"><path class="b" d="M1287.588,286.644l-3.784,45.9,3.784,43.253,2.039,4.272,5.947-.491,1.951-7.107V300.918a15.217,15.217,0,0,0-9.938-14.274Z" transform="translate(-1277.73 -285.701)"/><path class="c" d="M1268.673,283.584h-4.444l-.136,86.555,1.354,6.869,5.35.944,3.154-4.272V284.527a15.152,15.152,0,0,0-5.279-.943Z" transform="translate(-1264.094 -283.584)"/></g></g><g transform="translate(0 81.628)"><path class="d" d="M1341.127,548.474a119.927,119.927,0,0,0-15.4,1.008,130.791,130.791,0,0,0-19.707,4.135q-5.131,1.493-9.938,3.325l32.042,26.3,16.57,41.378,18.785-76.149Z" transform="translate(-1229.196 -548.474)"/><g transform="translate(6.795 22.077)"><path class="d" d="M1292.956,679.632l-13.314,5.563-7.324,14.833,7.324,15.336h26.911l1.507-21.266Z" transform="translate(-1219.548 -661.292)"/><path class="e" d="M1156.239,628.928l-44.75-8.812-10.415,6.048,11.605,48.023h48.488V644.019Z" transform="translate(-1101.074 -620.116)"/></g><path class="d" d="M1333.63,642.842v.792h-21.7a78.512,78.512,0,0,0-26.911-30.169l-4.929-15.091,4.929-22.421C1315.023,588.514,1333.63,613.752,1333.63,642.842Z" transform="translate(-1218.13 -567.486)"/><path class="e" d="M1145.912,556.942v37.512c-15.867-10.7-36.464-17.226-60.094-17.855l-6.795-28.125h22.354a127.791,127.791,0,0,1,15.017.869c.018,0,.04,0,.059.006a114.071,114.071,0,0,1,19.6,4.052,101.961,101.961,0,0,1,9.858,3.541Z" transform="translate(-1079.024 -548.474)"/></g></g><g transform="translate(711.375 398.346)"><path class="f" d="M1247.3,670.981l-2.053-5.481h-.592l-.932,5.481h-4.718L1241.654,656h6.158a8.293,8.293,0,0,1,2.221.276,4.929,4.929,0,0,1,1.693.8,3.507,3.507,0,0,1,1.068,1.3,4.024,4.024,0,0,1,.37,1.767,5.081,5.081,0,0,1-.878,3.069,4.4,4.4,0,0,1-2.4,1.651l2.921,6.115Zm-1.079-8.591a2.982,2.982,0,0,0,1.524-.329,1.127,1.127,0,0,0,.55-1.047.926.926,0,0,0-.455-.9,2.649,2.649,0,0,0-1.238-.243h-.909l-.444,2.518Z" transform="translate(-1239.009 -656)"/><path class="f" d="M1300.8,670.981h-2.54l-1.374-11.32h-.043l-5.67,11.32h-2.54L1287.24,656h2.752l.74,11.088h.041L1296.191,656h2.709l1.164,11.088h.041L1305.29,656h2.772Z" transform="translate(-1272.377 -656)"/></g><g transform="translate(476.36 299.251)"><g transform="translate(8.909 38.803)"><g transform="translate(0 28.104)"><path class="g" d="M791.608,551.544l-18.216,20.6-19.216-6.189-9.318,17.519-9.837-16.155-13.393,7.894-4.78,9.52,4.78,8.094,11.164,8.351h48.572l10.243-8.351Z" transform="translate(-651.65 -551.544)"/><path class="h" d="M563.416,570.1l-8.367-14.949h-4.642l-15.814,14.477H519.8L505.27,551.544v41.281l10.361,8.35h48.7l10.917-8.35V575.21Z" transform="translate(-505.27 -551.544)"/></g><g transform="translate(0 22.686)"><path class="e" d="M551.583,539.379l-6.99-5.418h-32.1l-7.223,5.418a23.669,23.669,0,0,0,46.824,4.9l2.482-.2v-3.218Z" transform="translate(-505.27 -533.961)"/><g transform="translate(46.313)"><path class="i" d="M739.614,539.379l3.936.535v15.578l-3.936,3.4a23.569,23.569,0,0,1-13.393,4.151L723.488,550.3l2.734-10.921,3.849-5.418h6.845Z" transform="translate(-702.556 -533.961)"/><path class="d" d="M679.226,539.379v23.666a23.656,23.656,0,0,1-23.666-23.666l5.144-5.418h13.932Z" transform="translate(-655.56 -533.961)"/></g></g><path class="d" d="M866.681,541.264a23.672,23.672,0,0,1-37.432,19.257L825.36,556.2v-11.78l3.889-3.153,7.834-4.579H858.4Z" transform="translate(-726.722 -513.16)"/><path class="b" d="M791.608,468.831v19.617H754.176V512.8a9.577,9.577,0,0,1-9.574,9.581h0a9.578,9.578,0,0,1-9.577-9.581V488.448H721.629l-4.78-10.776,4.78-8.841,6.49-8.487h58.713Z" transform="translate(-651.65 -460.344)"/><path class="c" d="M575.249,468.831v19.617H505.27V468.831l5.876-8.487h59.245Z" transform="translate(-505.27 -460.344)"/></g><g transform="translate(0 0)"><path class="j" d="M791.332,381.714H712.444l-8.871-23.645,8.871-23.645h31.6C769.812,334.424,791.332,355.944,791.332,381.714Z" transform="translate(-633.556 -334.424)"/><path class="k" d="M555.248,334.424v47.29H476.36a47.291,47.291,0,0,1,47.29-47.29Z" transform="translate(-476.36 -334.424)"/><g transform="translate(36.345 14.403)"><g transform="translate(0 9.239)"><path class="l" d="M594.3,411.145h9.245v9.245H594.3Z" transform="translate(-594.304 -411.145)"/><g transform="translate(75.841)"><path class="m" d="M840.416,411.145h9.245v9.245h-9.245Z" transform="translate(-840.416 -411.145)"/></g></g><g transform="translate(37.92)"><path class="m" d="M733.317,381.164v9.245h-4.622l-1.633-4.622,1.633-4.622Z" transform="translate(-724.072 -381.164)"/><path class="l" d="M717.36,381.164h4.622v9.245H717.36Z" transform="translate(-717.36 -381.164)"/></g></g></g><g transform="translate(0 108.188)"><path class="j" d="M800.517,685.5v3.06a30.862,30.862,0,0,1-30.862,30.862H721.629l-4.78-16.961,4.78-16.961Z" transform="translate(-642.741 -685.504)"/><path class="k" d="M555.248,685.5v33.922H507.222a30.862,30.862,0,0,1-30.862-30.862V685.5Z" transform="translate(-476.36 -685.504)"/></g></g></g></svg>