<svg xmlns="http://www.w3.org/2000/svg" width="247.585" height="157.776" viewBox="0 0 247.585 157.776"><defs><style>.a{fill:#edbe00;}.b{fill:#ffd322;}.c{fill:#ffe377;}.d{fill:#ff3939;}.e{fill:#ff5b5b;}.f{fill:#fbfe67;}.g{fill:#71390f;}.h{fill:#8e4813;}.i{fill:#fb0023;}.j{fill:#ff9000;}.k{fill:#ffb555;}.l{fill:#dc7d00;}.m{fill:#c46e06;}</style></defs><g transform="translate(-1162.415 -1908.257)"><g transform="translate(613.64 1624.673)"><g transform="translate(662.075 283.584)"><g transform="translate(17.71 0)"><g transform="translate(54.051 20.412)"><path class="a" d="M1336.676,376.255l-.055-26.431h-4.444a15.218,15.218,0,0,0-15.217,15.217l-5.066,5.553v40.6l5.066,4.992,3.116,2.562h14.057l2.533-6.7,4.391-2.85v-29.37Z" transform="translate(-1311.894 -349.824)"/><path class="b" d="M1407.5,387.876a15.218,15.218,0,0,0-15.208,14.7l-.009,35.792,4.054,6.7h11.089l4.518-7.705V387.864Z" transform="translate(-1367.511 -376.142)"/></g><g transform="translate(0 7.822)"><path class="b" d="M1192.92,308.967h-4.444v27.806l-5.264,6.707v31.366l5.264,8.688,3.653,6.942h10.7l5.307-2.778,6.075-13.789V328.75l-6.075-4.168A15.421,15.421,0,0,0,1192.92,308.967Z" transform="translate(-1168.816 -308.967)"/><path class="c" d="M1140.938,349.824h-4.443v61.215l3.906,7.705h12.8l2.956-6.836V365.041A15.218,15.218,0,0,0,1140.938,349.824Z" transform="translate(-1136.494 -337.234)"/></g><g transform="translate(39.321)"><path class="b" d="M1287.588,286.644l-3.784,45.9,3.784,43.253,2.039,4.272,5.948-.491,1.952-7.107V300.918a15.217,15.217,0,0,0-9.938-14.274Z" transform="translate(-1277.73 -285.701)"/><path class="c" d="M1268.673,283.584h-4.444l-.135,86.555,1.354,6.869,5.35.944,3.154-4.272V284.527a15.152,15.152,0,0,0-5.279-.943Z" transform="translate(-1264.094 -283.584)"/></g></g><g transform="translate(0 81.628)"><path class="d" d="M1341.127,548.474a119.923,119.923,0,0,0-15.4,1.008,130.79,130.79,0,0,0-19.706,4.135q-5.131,1.493-9.938,3.325l32.042,26.3,16.57,41.378,18.785-76.148Z" transform="translate(-1229.196 -548.474)"/><g transform="translate(6.795 22.077)"><path class="d" d="M1292.956,679.632l-13.314,5.563-7.324,14.833,7.324,15.336h26.911l1.507-21.266Z" transform="translate(-1219.548 -661.292)"/><path class="e" d="M1156.239,628.928l-44.75-8.812-10.415,6.049,11.605,48.023h48.488V644.019Z" transform="translate(-1101.074 -620.116)"/></g><path class="d" d="M1333.63,642.842v.792h-21.7a78.512,78.512,0,0,0-26.911-30.168l-4.929-15.091,4.929-22.421C1315.023,588.514,1333.63,613.752,1333.63,642.842Z" transform="translate(-1218.13 -567.486)"/><path class="e" d="M1145.912,556.942v37.512c-15.867-10.7-36.464-17.226-60.094-17.855l-6.795-28.125h22.354a127.777,127.777,0,0,1,15.016.869c.018,0,.04,0,.059.006a114.072,114.072,0,0,1,19.6,4.052,102,102,0,0,1,9.858,3.541Z" transform="translate(-1079.024 -548.474)"/></g></g><g transform="translate(711.375 398.346)"><g transform="translate(0 0)"><path class="f" d="M1247.3,670.981l-2.053-5.481h-.592l-.931,5.481h-4.718L1241.654,656h6.158a8.288,8.288,0,0,1,2.221.275,4.926,4.926,0,0,1,1.693.8,3.505,3.505,0,0,1,1.068,1.3,4.024,4.024,0,0,1,.37,1.767,5.081,5.081,0,0,1-.878,3.069,4.4,4.4,0,0,1-2.4,1.651l2.921,6.115Zm-1.08-8.591a2.982,2.982,0,0,0,1.524-.329,1.127,1.127,0,0,0,.549-1.047.925.925,0,0,0-.455-.9,2.647,2.647,0,0,0-1.238-.243h-.909l-.444,2.518Z" transform="translate(-1239.009 -656)"/><path class="f" d="M1300.8,670.981h-2.54l-1.374-11.32h-.043l-5.67,11.32h-2.54L1287.24,656h2.752l.74,11.088h.041L1296.191,656h2.709l1.164,11.088h.041L1305.29,656h2.772Z" transform="translate(-1272.377 -656)"/></g></g></g><g transform="translate(1162.415 1987.145)"><g transform="translate(0)"><g transform="translate(4.945 21.54)"><g transform="translate(0 15.601)"><path class="g" d="M755.471,672.813,745.36,684.247l-10.667-3.436-5.173,9.725-5.461-8.968-7.434,4.382-2.654,5.285,2.654,4.493,6.2,4.636h26.963l5.686-4.636Z" transform="translate(-677.778 -672.813)"/><path class="h" d="M639.808,683.112l-4.645-8.3h-2.577l-8.779,8.036H615.6l-8.067-10.037v22.916l5.752,4.635h27.035l6.06-4.635v-9.778Z" transform="translate(-607.53 -672.813)"/></g><g transform="translate(0 12.593)"><path class="e" d="M633.239,666.975l-3.88-3.008h-17.82l-4.009,3.008a13.139,13.139,0,0,0,25.993,2.722l1.378-.11V667.8Z" transform="translate(-607.53 -663.967)"/><g transform="translate(25.709)"><path class="i" d="M726.263,666.975l2.185.3v8.648l-2.185,1.889a13.083,13.083,0,0,1-7.434,2.3l-1.518-7.075,1.518-6.062,2.136-3.008h3.8Z" transform="translate(-705.691 -663.967)"/><path class="d" d="M696.276,666.975v13.138a13.132,13.132,0,0,1-13.138-13.138l2.856-3.008h7.734Z" transform="translate(-683.138 -663.967)"/></g></g><path class="d" d="M791.5,667.88a13.141,13.141,0,0,1-20.779,10.69l-2.159-2.4v-6.54l2.159-1.75,4.349-2.542H786.9Z" transform="translate(-713.805 -652.279)"/><path class="b" d="M755.471,631.643v10.89H734.692v13.521a5.317,5.317,0,0,1-5.315,5.318h0a5.317,5.317,0,0,1-5.317-5.318V642.533h-7.434l-2.654-5.982,2.654-4.908,3.6-4.711H752.82Z" transform="translate(-677.778 -626.932)"/><path class="c" d="M646.377,631.643v10.89H607.53v-10.89l3.262-4.711H643.68Z" transform="translate(-607.53 -626.932)"/></g><path class="j" d="M756.009,589.836H712.217l-4.925-13.126,4.925-13.126h17.541A26.5,26.5,0,0,1,756.009,589.836Z" transform="translate(-668.424 -563.584)"/><path class="k" d="M636.779,563.584v26.252H592.986a26.253,26.253,0,0,1,26.252-26.252Z" transform="translate(-592.986 -563.584)"/><g transform="translate(20.176 7.996)"><g transform="translate(0 5.129)"><path class="l" d="M652.321,602.181h5.132v5.132h-5.132Z" transform="translate(-652.321 -602.181)"/><g transform="translate(42.101)"><path class="m" d="M776.135,602.181h5.132v5.132h-5.132Z" transform="translate(-776.135 -602.181)"/></g></g><g transform="translate(21.05)"><path class="m" d="M722.581,587.1v5.132h-2.566l-.906-2.566.906-2.566Z" transform="translate(-717.449 -587.098)"/><path class="l" d="M714.228,587.1h2.566v5.132h-2.566Z" transform="translate(-714.228 -587.098)"/></g></g><g transform="translate(0 60.057)"><path class="j" d="M760.417,740.205v1.7a17.132,17.132,0,0,1-17.132,17.132h-26.66l-2.654-9.415,2.654-9.416Z" transform="translate(-672.832 -740.205)"/><path class="k" d="M636.779,740.205v18.831h-26.66A17.132,17.132,0,0,1,592.986,741.9v-1.7Z" transform="translate(-592.986 -740.205)"/></g></g></g></g></svg>