<svg xmlns="http://www.w3.org/2000/svg" width="911" height="393.547" viewBox="0 0 911 393.547"><defs><style>.a{fill:#96983d;}.b{fill:#afb147;}.c{fill:#c8cb51;}.d{fill:#e1e45b;}.e,.j{fill:#fbfe67;}.f{opacity:0.121;}.g,.h,.i{fill:#fff;}.h{font-size:24px;font-family:HiraKakuPro-W6, Hiragino Kaku Gothic Pro;}.i,.j{font-size:16px;}.i{font-family:HiraKakuProN-W6, Hiragino Kaku Gothic ProN;}.j{font-family:HiraKakuProN-W3, Hiragino Kaku Gothic ProN;}</style></defs><g transform="translate(-505 -3182.453)"><g transform="translate(449.3 2588.585)"><g transform="translate(415.7 653.868)"><g transform="translate(42.748)"><path class="a" d="M540.182,793.869,442.931,693.16c26.7-25.781,60.138-39.292,97.251-39.292Z" transform="translate(-442.931 -653.868)"/></g><g transform="translate(21.273 39.293)"><path class="b" d="M547.978,779.606,429.251,705.417A129.267,129.267,0,0,1,450.726,678.9Z" transform="translate(-429.251 -678.898)"/></g><g transform="translate(0 65.811)"><path class="c" d="M555.7,769.98h-140c0-27.836,6.523-50.584,21.273-74.189Z" transform="translate(-415.7 -695.791)"/></g><g transform="translate(0 140.001)"><path class="d" d="M555.7,743.051,433.254,810.923A134.537,134.537,0,0,1,415.7,743.051Z" transform="translate(-415.7 -743.051)"/></g><g transform="translate(17.554)"><path class="e" d="M549.328,793.869v-140a140,140,0,1,1,0,280c-52.578,0-96.956-26.142-122.446-72.127Z" transform="translate(-426.882 -653.868)"/></g></g></g><g transform="translate(89.3 2588.585)"><g transform="translate(415.7 653.868)"><g class="f" transform="translate(42.748)"><path class="g" d="M540.182,793.869,442.931,693.16c26.7-25.781,60.138-39.292,97.251-39.292Z" transform="translate(-442.931 -653.868)"/></g><g class="f" transform="translate(21.273 39.293)"><path class="g" d="M547.978,779.606,429.251,705.417A129.267,129.267,0,0,1,450.726,678.9Z" transform="translate(-429.251 -678.898)"/></g><g class="f" transform="translate(0 65.811)"><path class="g" d="M555.7,769.98h-140c0-27.836,6.523-50.584,21.273-74.189Z" transform="translate(-415.7 -695.791)"/></g><g class="f" transform="translate(0 140.001)"><path class="g" d="M555.7,743.051,433.254,810.923A134.537,134.537,0,0,1,415.7,743.051Z" transform="translate(-415.7 -743.051)"/></g><g transform="translate(17.554)"><path class="e" d="M549.328,793.869v-140a140,140,0,1,1,0,280c-52.578,0-96.956-26.142-122.446-72.127Z" transform="translate(-426.882 -653.868)"/></g></g></g><g transform="translate(219.16 2517.517)"><g transform="translate(693.84 664.936)"><path class="e" d="M670.944,665.992h9.426a15.788,15.788,0,0,1,3.2.32,8.107,8.107,0,0,1,2.84,1.148,6.114,6.114,0,0,1,2.023,2.191,6.949,6.949,0,0,1,.773,3.445,6.188,6.188,0,0,1-3.82,5.894l5.551,8.871h-8.445l-4.187-7.82h-.223v7.82h-7.137Zm7.078,9.234h1.441a6.256,6.256,0,0,0,.813-.059,2.6,2.6,0,0,0,.828-.266,1.853,1.853,0,0,0,.641-.555,1.566,1.566,0,0,0,.262-.945,1.7,1.7,0,0,0-.215-.922,1.33,1.33,0,0,0-.551-.512,2.247,2.247,0,0,0-.734-.215,5.631,5.631,0,0,0-.738-.047h-1.746Z" transform="translate(-670.944 -663.272)"/><path class="e" d="M679.081,668.584a3.45,3.45,0,0,1,.293-1.406,3.766,3.766,0,0,1,.8-1.164,4.115,4.115,0,0,1,1.184-.785,3.678,3.678,0,0,1,1.457-.293,3.351,3.351,0,0,1,1.391.293,4.24,4.24,0,0,1,1.152.785,3.777,3.777,0,0,1,.809,1.164,3.582,3.582,0,0,1,0,2.836,3.494,3.494,0,0,1-.809,1.148,4.066,4.066,0,0,1-1.152.758,3.535,3.535,0,0,1-1.391.277,3.883,3.883,0,0,1-1.457-.277,3.961,3.961,0,0,1-1.184-.758,3.522,3.522,0,0,1-1.1-2.578Zm.121,4.7h7.133v16.246H679.2Z" transform="translate(-658.135 -664.936)"/><path class="e" d="M682.693,676.5a10.324,10.324,0,0,1,.473-3.094,8.887,8.887,0,0,1,1.41-2.715,7.1,7.1,0,0,1,2.316-1.945,6.757,6.757,0,0,1,3.207-.742,7.018,7.018,0,0,1,2.555.492,4.584,4.584,0,0,1,2.055,1.582h.09v-1.641h6.707v14.582a9.989,9.989,0,0,1-.867,4.418,7.407,7.407,0,0,1-2.3,2.793,8.844,8.844,0,0,1-3.262,1.449,16.371,16.371,0,0,1-3.707.418,18.249,18.249,0,0,1-4.629-.6,12.87,12.87,0,0,1-4.047-1.777L685.81,685a8.359,8.359,0,0,0,4.945,1.73,5.23,5.23,0,0,0,1.469-.2,3.877,3.877,0,0,0,1.219-.586,2.963,2.963,0,0,0,.832-.957,2.717,2.717,0,0,0,.3-1.316v-.707h-.094a5.034,5.034,0,0,1-1.738,1.2,6.31,6.31,0,0,1-2.648.527,7.537,7.537,0,0,1-3.27-.664,6.7,6.7,0,0,1-2.316-1.8,7.372,7.372,0,0,1-1.375-2.605A10.8,10.8,0,0,1,682.693,676.5Zm6.609,0a2.921,2.921,0,0,0,.68,1.961,2.468,2.468,0,0,0,1.973.789,2.668,2.668,0,0,0,2.027-.8,2.75,2.75,0,0,0,.754-1.945,2.665,2.665,0,0,0-2.781-2.687,2.428,2.428,0,0,0-1.973.8A2.831,2.831,0,0,0,689.3,676.5Z" transform="translate(-652.451 -660.101)"/><path class="e" d="M702.7,672.091a5.782,5.782,0,0,1,2.82.617,5.031,5.031,0,0,1,1.785,1.586,6.086,6.086,0,0,1,.922,2.184,11.2,11.2,0,0,1,.266,2.41v9.879h-7.14v-8.648a2.917,2.917,0,0,0-.383-1.73,1.39,1.39,0,0,0-1.16-.492,1.481,1.481,0,0,0-1.109.543,2.457,2.457,0,0,0-.5,1.714v8.613h-7.137V665.416h7.137v8.895h.063a5.373,5.373,0,0,1,1.754-1.559A5.2,5.2,0,0,1,702.7,672.091Z" transform="translate(-639.263 -664.182)"/><path class="e" d="M707.135,687.084a7.092,7.092,0,0,1-4.847-1.406,5.557,5.557,0,0,1-1.578-4.371v-5.8h-2.285v-5.1h2.258v-3.64H707.6v3.64h3.523v5.1H707.6v4.32a1.955,1.955,0,0,0,.516,1.59,2.1,2.1,0,0,0,1.4.414,4.6,4.6,0,0,0,.711-.055,5.351,5.351,0,0,0,.586-.125v4.879a6.265,6.265,0,0,1-1.559.406A14.174,14.174,0,0,1,707.135,687.084Z" transform="translate(-627.684 -662.065)"/><path class="e" d="M718.8,679.646a5.075,5.075,0,0,1-.7,2.746,5.452,5.452,0,0,1-1.754,1.777,7.445,7.445,0,0,1-2.316.957,10.645,10.645,0,0,1-2.4.3,14.393,14.393,0,0,1-4.129-.605A11.088,11.088,0,0,1,704,683.1l3.492-4.047a5.9,5.9,0,0,0,1.746,1.094,4.954,4.954,0,0,0,1.93.422,1.734,1.734,0,0,0,.7-.141.506.506,0,0,0,.324-.508c0-.27-.191-.48-.578-.633a14.909,14.909,0,0,0-1.988-.574,8.985,8.985,0,0,1-1.578-.539,5.79,5.79,0,0,1-1.465-.941,4.828,4.828,0,0,1-1.1-1.437,4.456,4.456,0,0,1-.43-2.023,4.94,4.94,0,0,1,.7-2.687,5.666,5.666,0,0,1,1.758-1.8,7.48,7.48,0,0,1,2.32-1.02,9.491,9.491,0,0,1,2.363-.328,12.963,12.963,0,0,1,3.738.559,12.549,12.549,0,0,1,3.336,1.539l-3.336,3.988a7.444,7.444,0,0,0-1.578-.77,4.673,4.673,0,0,0-1.574-.281,2.329,2.329,0,0,0-.871.137.544.544,0,0,0-.34.543c0,.2.133.367.391.48a11.684,11.684,0,0,0,1.766.445,9.334,9.334,0,0,1,1.863.574,6.623,6.623,0,0,1,1.629.984,4.451,4.451,0,0,1,1.156,1.469A4.565,4.565,0,0,1,718.8,679.646Z" transform="translate(-618.899 -660.214)"/><path class="g" d="M733.43,687.862h-7.348l-.621-12.605h-.117l-5.75,12.605h-7.258l-1.7-21.871h7.566V678.5h.117l5.129-12.511h7.359l.242,12.511h.121l5.129-12.511h7.449Z" transform="translate(-608.45 -663.272)"/><path class="g" d="M737.322,682.23a12.115,12.115,0,0,0-.172,1.387c-.031.473-.047.848-.047,1.109h-5.93c0-.145,0-.371.016-.691s.027-.586.047-.785h-.062a5.28,5.28,0,0,1-2.039,1.465,6.851,6.851,0,0,1-2.531.445,6.583,6.583,0,0,1-1.73-.242,4.963,4.963,0,0,1-1.562-.758,3.8,3.8,0,0,1-1.125-1.332,4.141,4.141,0,0,1-.434-1.961,5.3,5.3,0,0,1,.852-3.109,6.058,6.058,0,0,1,2.285-1.93,11.541,11.541,0,0,1,3.32-1,25.69,25.69,0,0,1,3.953-.3.86.86,0,0,0,.031-.2V674.2a1.051,1.051,0,0,0-.539-.949,2.736,2.736,0,0,0-1.406-.32,4.911,4.911,0,0,0-1.914.383,6.617,6.617,0,0,0-1.7,1.039l-3.023-3.461a8.7,8.7,0,0,1,1.684-1.254,14.026,14.026,0,0,1,1.93-.914,12.312,12.312,0,0,1,2-.551,11.206,11.206,0,0,1,1.949-.187,8.787,8.787,0,0,1,5.574,1.5,5.088,5.088,0,0,1,1.871,4.211,15.633,15.633,0,0,1-.246,2.57Zm-5.344-4.172h-.406a10.611,10.611,0,0,0-1.449.09,5.443,5.443,0,0,0-1.187.293,2.318,2.318,0,0,0-.82.523,1.145,1.145,0,0,0-.309.82.9.9,0,0,0,.445.914,2.383,2.383,0,0,0,.973.2,2.566,2.566,0,0,0,1.75-.648,2.875,2.875,0,0,0,.906-1.672Z" transform="translate(-590.958 -660.135)"/><path class="g" d="M738.917,684.422h-7.535l-2.754-16.246h7.293l.617,8.988h.125l4.109-8.988h7.66Z" transform="translate(-580.136 -659.835)"/><path class="g" d="M741.779,678.21a.863.863,0,0,0-.027.211,1.306,1.306,0,0,0,.273.855,2.2,2.2,0,0,0,.68.523,3.041,3.041,0,0,0,.867.277,5.28,5.28,0,0,0,.832.082,4.436,4.436,0,0,0,1.52-.27,3.673,3.673,0,0,0,1.324-.816l4.668,3.211a8.71,8.71,0,0,1-3.676,2.289,14.263,14.263,0,0,1-4.3.648,11.686,11.686,0,0,1-3.293-.461,7.793,7.793,0,0,1-2.711-1.395,6.605,6.605,0,0,1-1.84-2.3,7.181,7.181,0,0,1-.68-3.227,10.125,10.125,0,0,1,.738-3.875,9.329,9.329,0,0,1,2.086-3.133,9.594,9.594,0,0,1,3.219-2.09,10.948,10.948,0,0,1,4.121-.758,9.488,9.488,0,0,1,3.215.516,6.873,6.873,0,0,1,2.406,1.445,6.457,6.457,0,0,1,1.527,2.285,7.982,7.982,0,0,1,.543,3.016,9.758,9.758,0,0,1-.117,1.48,8,8,0,0,1-.316,1.484Zm5.469-3.68a.534.534,0,0,0,.031-.2v-.172a1.541,1.541,0,0,0-.574-1.254,2.427,2.427,0,0,0-1.59-.473,2.947,2.947,0,0,0-1.156.219,3.586,3.586,0,0,0-.879.535,3.009,3.009,0,0,0-.6.676,2.388,2.388,0,0,0-.328.668Z" transform="translate(-569.443 -660.135)"/></g></g><g transform="translate(-316 58)"><text class="h" transform="translate(961 3149)"><tspan x="-96" y="0">他サービスの場合</tspan></text></g><text class="i" transform="translate(1301 3275)"><tspan x="0" y="0">配信収入</tspan><tspan x="0" y="56">著作権(配信)</tspan><tspan x="0" y="112">著作権(放送) </tspan><tspan x="0" y="168">著作権(演奏等) </tspan><tspan x="0" y="224">著作権(その他) </tspan></text><text class="j" transform="translate(1005 3574)"><tspan x="0" y="0">著作権収入の内訳は、一般的な区分比率に基づきます</tspan></text><rect class="e" width="56" height="56" transform="translate(1225 3242)"/><rect class="d" width="56" height="56" transform="translate(1225 3298)"/><rect class="c" width="56" height="56" transform="translate(1225 3354)"/><rect class="b" width="56" height="56" transform="translate(1225 3410)"/><rect class="a" width="56" height="56" transform="translate(1225 3466)"/></g></svg>