<?xml version="1.0" encoding="UTF-8"?><svg id="_レイヤー_2" xmlns="http://www.w3.org/2000/svg" viewBox="0 0 860 104.49"><defs><style>.cls-1{fill:#fff;}</style></defs><g id="copy"><g><path id="_パス_1078" class="cls-1" d="M34.05,24.71c-1.95,1.51-3.99,2.91-6.1,4.2,2.89,1.44,5.96,2.45,9.14,3.01l-3.43,4.63c-.14,.27-.43,.43-.73,.42-.17,0-.34-.02-.5-.08-3.61-.98-6.99-2.63-9.99-4.86-1.19-.94-2.29-2-3.28-3.16l-.24,3.85c-.03,.47-.23,.62-.65,.73-4.82,1.12-10.34,2.16-16.15,2.93l-.35-.12-1.77-4.93,.27-.35c1.62-.11,3.16-.23,4.66-.38V9.53l-.12-4.97,.27-.24,5.13,.12h4.94V.54l.31-.31h5.32l.27,.27v3.93h4.78l5.05-.12,.31,.31-.12,4.7v7.17l.12,5.13-.08,.08,3.01,2.62-.07,.39Zm-8.68-15.81H10.49v2.04h14.88v-2.04Zm-14.88,8.41h14.88v-2.12H10.49v2.12Zm0,12.69c2.81-.35,5.63-.85,8.41-1.43-1.66-2.04-2.97-4.33-3.89-6.79h-4.51v8.21Zm10.37-8.21c.8,1.47,1.8,2.82,2.97,4.01,1.74-1.19,3.39-2.51,4.93-3.94l-2.54-.08h-5.36Z"/><path id="_パス_1079" class="cls-1" d="M44.48,5.59l5.44,.2,.27,.27c-.35,4.28-.46,8.1-.46,10.33-.06,2.57,.24,5.14,.88,7.64,.43,1.5,.93,2.62,1.77,2.62,1.05,0,2.35-2.08,3.24-5.63l3.85,4.85c.25,.26,.3,.65,.12,.96-1.55,4.01-4.05,6.9-7.17,6.9-2.51,0-4.71-1.77-6.25-4.89-1.59-3.79-2.35-7.88-2.23-11.99,0-3.12,.08-6.82,.27-11.03l.27-.23Zm18.28,6.71l3.7-2.97,.42-.07c4.51,3.11,8.05,7.42,10.21,12.45l-.11,.34-4.9,3.04-.39-.11c-2.08-5.32-5.01-9.52-9.02-12.34l.08-.35Z"/><path id="_パス_1080" class="cls-1" d="M100.6,12.68c0,.61,0,1.42-.04,2.01,1.84-1.42,3.55-2.99,5.13-4.71h-15.3l-6.67,.12-.27-.3V4.74l.35-.23,6.52,.12h17.15l3.86-.19,2.7,3.62c.11,.16,.18,.35,.19,.54,0,.27-.12,.53-.31,.73-2.62,3.07-5.46,5.96-8.48,8.64-.62,.54-.81,.54-1.39,.15l-3.54-2.39c-.39,8.29-2.58,13.77-9.22,18.66-.19,.17-.44,.26-.69,.27-.3-.03-.59-.14-.85-.31l-5.13-2.62c8.06-4.63,9.68-9.56,9.52-19.01l.27-.31h5.94l.27,.27Z"/><path id="_パス_1081" class="cls-1" d="M144.92,21.86h-17.23l-5.74,.12-.27-.31v-5.51l.34-.23,5.52,.11h17.19l5.94-.11,.31,.27v5.48l-.27,.31-5.79-.12Z"/><path id="_パス_1082" class="cls-1" d="M166.07,17.58l-5.82,.12-.27-.31v-4.9l.31-.27,5.74,.12h18.2l5.43-.11,.31,.27v4.9l-.27,.31-5.47-.12h-5.36c-.22,5.26-2.44,10.24-6.21,13.92-1.33,1.2-2.79,2.25-4.35,3.12-.2,.13-.42,.21-.66,.23-.3-.05-.58-.18-.81-.39l-4.9-3.04c6.1-2.32,10.1-6.83,10.6-13.84h-6.47Zm14.26-8.52h-10.68l-5.13,.12-.27-.31V3.9l.35-.24,4.74,.12h10.95l5.24-.12,.31,.27v4.93l-.27,.31-5.25-.12Z"/><path id="_パス_1083" class="cls-1" d="M213.9,25.45l.15,8.79h-5.75l.15-8.6v-3.35c-2.21,1.55-4.5,2.98-6.86,4.28-.58,.27-.66,.23-1.08-.15l-3.66-3.16c6.9-3.08,13.05-7.63,18.01-13.34l.39-.04,4.12,2.93,.04,.35c-2.01,2.05-3.85,3.7-5.51,5.13v7.17Z"/><path id="_パス_1084" class="cls-1" d="M255.79,32.23c-2.57-3.3-5.44-6.35-8.56-9.14-3.79,4-8.27,7.28-13.22,9.68-.26,.15-.55,.25-.85,.27-.23-.02-.44-.12-.61-.27l-4.55-3.51c8.86-4.12,16.61-9.95,20.16-17.97h-9.18l-5.75,.12-.27-.31V5.86l.35-.23,5.78,.12h10.91l3.93-.19,2.35,2.32c.27,.27,.42,.46,.42,.69-.04,.33-.16,.65-.34,.93-1.58,3.08-3.36,6.05-5.32,8.9,3.5,2.8,6.76,5.88,9.76,9.22l-.04,.42-4.55,4.24-.42-.04Z"/><path id="_パス_1085" class="cls-1" d="M282.11,19.66l.2,14.73h-6.71l.19-14.8V2.97l.31-.27h5.71l.31,.3V15.88l3.32-3.7,.38-.04c3.1,1.64,6.01,3.62,8.68,5.9l-.04,.39-3.74,4.66-.39,.04c-2.49-2.33-5.25-4.36-8.22-6.05v2.58Z"/><path id="_パス_1086" class="cls-1" d="M316.06,31.39c.02,3.02-2.41,5.49-5.43,5.52s-5.49-2.41-5.52-5.43c-.02-3.02,2.41-5.49,5.43-5.52,.01,0,.03,0,.04,0,2.96-.06,5.41,2.29,5.47,5.26,0,.06,0,.12,0,.18m-8.68,0c0,1.77,1.43,3.2,3.2,3.2s3.2-1.43,3.2-3.2-1.43-3.2-3.2-3.2h0c-1.74-.03-3.17,1.36-3.2,3.1,0,.03,0,.07,0,.1"/><path id="_パス_1087" class="cls-1" d="M379.7,24.71c-1.95,1.51-3.99,2.91-6.1,4.2,2.89,1.44,5.96,2.45,9.14,3.01l-3.43,4.63c-.14,.27-.43,.43-.73,.42-.17,0-.34-.02-.5-.08-3.61-.98-6.99-2.63-9.99-4.86-1.19-.94-2.29-2-3.28-3.16l-.24,3.85c-.04,.47-.23,.62-.65,.73-4.82,1.12-10.34,2.16-16.15,2.93l-.35-.12-1.77-4.93,.27-.35c1.62-.11,3.16-.23,4.67-.38V9.53l-.12-4.97,.27-.24,5.13,.12h4.94V.54l.31-.31h5.32l.27,.27v3.93h4.78l5.05-.12,.31,.31-.12,4.7v7.17l.12,5.13-.08,.08,3.01,2.62-.07,.39Zm-8.68-15.81h-14.88v2.04h14.88v-2.04Zm-14.88,8.41h14.88v-2.12h-14.88v2.12Zm0,12.69c2.81-.35,5.63-.85,8.41-1.43-1.66-2.04-2.97-4.33-3.89-6.79h-4.51v8.21Zm10.37-8.21c.8,1.47,1.8,2.82,2.97,4.01,1.74-1.19,3.39-2.51,4.93-3.93l-2.54-.08h-5.36Z"/><path id="_パス_1088" class="cls-1" d="M390.9,5.59l5.44,.2,.27,.27c-.35,4.28-.46,8.1-.46,10.33-.06,2.57,.24,5.14,.89,7.64,.42,1.5,.93,2.62,1.77,2.62,1.04,0,2.35-2.08,3.24-5.63l3.85,4.86c.25,.26,.3,.65,.12,.96-1.55,4.01-4.05,6.9-7.18,6.9-2.5,0-4.7-1.77-6.24-4.89-1.59-3.79-2.35-7.88-2.24-11.99,0-3.12,.08-6.82,.27-11.03l.27-.23Zm18.28,6.71l3.7-2.97,.42-.07c4.51,3.11,8.05,7.42,10.22,12.45l-.11,.34-4.9,3.04-.39-.11c-2.08-5.32-5.01-9.52-9.02-12.34l.08-.35Z"/><path id="_パス_1089" class="cls-1" d="M444.25,.35l.27-.31h5.28l.27,.27V3.93h7.48l5.24-.08,.27,.23v4.09l-.27,.27-5.24-.12h-.58c-.37,1.35-.82,2.67-1.35,3.97h4.01l5.44-.07,.27,.23v4.17l-.27,.27-5.44-.12h-24.82l-5.44,.12-.27-.31v-4.16l.31-.19,5.4,.07h3.77c-.31-1.35-.73-2.68-1.23-3.97h-.39l-5.2,.12-.27-.31V4.05l.31-.2,5.17,.08h7.29V.35Zm-4.2,34.89v1.74h-5.48l.19-8.95v-4.82l-.11-4.48,.23-.27,5.32,.12h14.07l5.32-.12,.27,.27-.12,4.48v4.97l.19,8.64h-5.63v-1.58h-14.26Zm14.26-12.41h-14.26v1.93h14.26v-1.93Zm0,6.17h-14.26v2h14.26v-2Zm-11.26-20.67c.46,1.31,.93,2.62,1.31,3.97h5.51c.51-1.3,.95-2.62,1.31-3.97h-8.13Z"/><path id="_パス_1090" class="cls-1" d="M486.91,30.38c-3.61,2.63-7.62,4.66-11.87,6.02-.15,.07-.31,.11-.47,.12-.19,0-.31-.12-.46-.31l-3.16-3.9c4.5-1.21,8.81-3.06,12.8-5.48h-4.9l-6.4,.12-.27-.27v-4.01l.34-.2,6.33,.12h7.98v-2l.19-.23h5.2l.24,.23v2h8.1l6.4-.12,.27,.27v3.93l-.27,.27-6.4-.12h-5.32c4.09,2.42,8.56,4.13,13.23,5.05l-3.2,4.36c-.11,.19-.32,.3-.54,.27-.16,0-.32-.02-.46-.08-4.26-1.48-8.27-3.59-11.91-6.25l.19,6.82h-5.82l.19-6.63Zm-15.19-14.96c3.2-.97,6.33-2.19,9.33-3.66l.57,4.17c.08,.5,0,.58-.66,.96-1.89,1.04-4.05,2.08-6.98,3.47l-.34-.08-2.08-4.51,.15-.34Zm7.4-6.01l-.35,.08c-1.96-1.6-4.08-3-6.32-4.17l-.08-.31,2.55-3.39,.35-.12c2.28,.96,4.43,2.2,6.4,3.7l.08,.35-2.63,3.86Zm13.22-5.4l4.55-.12,.31,.27-.11,4.16v5.44l.11,5.7-.34,.24-3.74-.08h-6.29l-4.24,.08-.27-.24,.12-5.51v-5.78l-.12-4.09,.27-.19,4.16,.12c.35-1.31,.62-2.55,.89-3.86l.35-.15,4.9,.85,.12,.42c-.35,1-.69,1.93-1,2.74h.34Zm-5.05,5.97h4.78v-2.04h-4.78v2.04Zm0,5.67h4.78v-2.15h-4.78v2.15Zm19.7-10.37c-1.92,1.69-4,3.21-6.2,4.52-.15,.1-.32,.15-.5,.15-.21,0-.4-.12-.5-.31l-2.59-3.39c2.13-1.4,4.08-3.04,5.82-4.9l.39-.04,3.62,3.59-.05,.38Zm-2.54,14.92l-.38,.04c-2.04-1.77-4.24-3.36-6.55-4.74l-.04-.34,2.59-3.43,.46-.08c2.37,1.24,4.63,2.68,6.75,4.32l.04,.39-2.86,3.85Z"/><path id="_パス_1091" class="cls-1" d="M528.23,31.39c.02,3.02-2.41,5.49-5.43,5.52-3.02,.02-5.49-2.41-5.52-5.43s2.41-5.49,5.43-5.52c.01,0,.03,0,.04,0,2.96-.06,5.41,2.29,5.47,5.26,0,.06,0,.12,0,.18m-8.68,0c0,1.77,1.43,3.2,3.2,3.2s3.2-1.43,3.2-3.2-1.43-3.2-3.2-3.2h0c-1.74-.03-3.17,1.36-3.2,3.1,0,.03,0,.07,0,.1"/><path id="_パス_1092" class="cls-1" d="M15.46,100.01c-.36-.32-.7-.66-1-1.04-2.15,1.46-4.66,2.3-7.25,2.43-3.01,0-4.74-2.36-4.74-5.52,0-5.78,4.05-10.87,9.1-13.53,.04-1.31,.12-2.35,.19-3.67-1.89,.15-3.86,.24-5.94,.27l-.23-.27-.07-4.51,.27-.27c1.93,0,4.08-.04,6.28-.19,.12-1.47,.23-2.93,.31-4.4l.27-.31,5.17,.19,.19,.35c-.15,1.2-.27,2.39-.42,3.62,3.14-.42,6.24-1.06,9.29-1.93l.39,.15,.24,4.78-.2,.34c-3.51,.69-6.78,1.23-10.18,1.66-.04,.54-.12,1.5-.19,2.58,1.38-.23,2.77-.35,4.16-.35,.16-.5,.27-1.02,.35-1.54l.27-.19,4.78,1.12,.19,.27c-.12,.54-.19,.89-.27,1.2,4.53,1.03,7.79,4.99,7.94,9.64,0,7.33-5.28,11.22-12.22,12.49-.31,0-.47,0-.66-.23l-3.43-3.93c8.29-1.39,10.56-4.17,10.56-8.52,0-2.97-1.35-4.63-3.43-5.36-1.38,3.81-3.56,7.29-6.4,10.18,.22,.33,.46,.64,.73,.93l-.08,.34-3.62,3.2h-.35Zm-7.98-5.44c-.06,.63,.4,1.18,1.03,1.24,.09,0,.18,0,.28,0,1.28-.23,2.49-.78,3.51-1.58-.51-2.12-.77-4.29-.77-6.47-2.31,1.89-4.05,4.74-4.05,6.83m12.45-9.95c-1.11-.05-2.22,.1-3.28,.42-.12,1.71-.07,3.43,.15,5.13,1.32-1.68,2.37-3.56,3.12-5.56"/><path id="_パス_1093" class="cls-1" d="M71.51,100.9c-3.55,.27-7.29,.42-12.15,.42-9.25,0-13.69-2.82-13.69-8.87,0-3.51,2.89-6.86,6.98-9.75-2.03-2.96-3.91-6.02-5.63-9.18l.08-.39,4.67-2.42,.39,.12c1.67,3.08,3.5,6.08,5.48,8.98,3.67-1.83,7.45-3.45,11.3-4.85l.39,.15,2.27,5.05-.15,.31c-3.35,1.12-6.79,2.43-9.02,3.39-.63,.44-1.01,1.16-1.04,1.92-.17,1.41-1.36,2.48-2.78,2.5-.98,0-1.93-.38-2.66-1.04-3.01,1.74-4.36,3.36-4.36,5.17,0,2.58,3.28,3.16,7.83,3.16,3.97-.05,7.94-.31,11.88-.78l.31,.24,.15,5.51-.23,.35Z"/><path id="_パス_1094" class="cls-1" d="M108.05,95.85v4.82h-18.74v-4.82h6.01v-18.7l-6.63,2.51v-5.32l9.91-3.7h3.47v25.21h5.98Z"/><path id="_パス_1095" class="cls-1" d="M120.28,87.06l-2.47-5.05,.12-.35c10.56-4.9,17.58-7.21,22.56-7.21,7.13,0,11.88,4.2,11.88,11.37-.07,5.11-3.14,9.7-7.83,11.72-3.68,1.54-7.59,2.44-11.57,2.66-.62,0-.81,0-1.04-.39l-3.08-5.17c4.04-.07,8.04-.81,11.84-2.2,3.85-1.54,5.28-3.82,5.28-7.44,0-2.97-1.93-4.9-5.79-4.93-4.08-.04-9.83,2.08-19.51,7.1l-.38-.12Z"/><path id="_パス_1096" class="cls-1" d="M179.8,88.21h6.13l4.2-.11,.31,.23v4.4l-.19,.23-4.32-.12h-6.13v5.17c.85,.08,1.74,.15,2.62,.15,3.24,.04,8.29-.15,12.92-.42l-2.15,5.21c-.15,.39-.27,.39-.69,.39-1.97,.07-4.51,.11-6.9,.11-2.81,0-5.51-.08-7.13-.27-2.72-.31-5.34-1.18-7.71-2.55-1.19-.78-2.22-1.77-3.04-2.93-1.21,2.48-2.9,4.7-4.98,6.51-.14,.15-.33,.25-.54,.27-.17-.01-.33-.08-.46-.19l-3.82-3.05c4.2-3.47,6.52-7.71,7.1-15.03l.31-.23,4.86,1.04,.27,.31c-.17,1.73-.45,3.44-.85,5.13,.92,1.66,2.3,3.01,3.97,3.9,.23,.12,.5,.27,.77,.39v-12.77h-4.01l-6.21,.12-.27-.27,.11-4.85v-4.36l-.11-4.78,.27-.27,6.21,.12h12.72l6.2-.12,.27,.27-.12,4.51v3.97l.12,5.51-.27,.27-6.2-.12h-3.24v4.24Zm3.93-13.92h-14.31v5.05h14.31v-5.05Z"/><path id="_パス_1097" class="cls-1" d="M210.43,69.29l5.2,.35,.27,.31c-.23,1.77-.39,2.66-.61,3.78-.27,1.12-.58,1.96-1.01,3.39,1.16-1.86,3.21-2.98,5.4-2.97,2.2,0,3.89,.73,5.59,3.04,1.66,2.32,2.27,5.48,2.27,9.75,0,7.98-2.93,13.46-12.03,16.54-.24,.08-.48,.13-.73,.15-.28-.02-.54-.14-.73-.35l-3.97-3.89c9.06-2.23,11.18-5.93,11.18-12.91,.1-1.98-.15-3.97-.73-5.86-.31-1-1.27-1.65-2.32-1.54-1.47,0-3.31,1.96-4.05,3.89-.61,1.49-.89,3.09-.81,4.7,.04,1.64,.38,3.26,1,4.78l-.19,.39-4.86,1.16-.39-.15c-1.01-2.09-1.54-4.38-1.54-6.71,.14-3.21,.63-6.39,1.47-9.49,.6-2.67,1.02-5.38,1.27-8.1l.32-.27Z"/><path id="_パス_1098" class="cls-1" d="M257.96,69.71c-.35,1.54-.77,3.05-1.12,4.44,1.35-.27,2.7-.58,4.05-.93l.34,.15,.74,3.39c4.13,.23,8.17,1.25,11.91,3.01l.12,.39-1.58,4.28-.31,.15c-.97-.48-2.04-.71-3.12-.66-2.47,0-4.59,.96-4.59,2.7,0,1.2,.58,2.97,1.7,5.74,3.01,1.27,5.83,2.93,8.4,4.94v.39l-3.24,4.16-.34,.04c-1.4-1.34-2.91-2.56-4.51-3.66-.12,3.12-3.51,5.16-7.87,5.16-5.01,0-8.1-2-8.1-6.01,0-3.62,3.09-6.17,7.21-6.17,.84-.01,1.68,.05,2.5,.2-.56-1.51-.85-3.1-.85-4.71,.08-2.08,2.04-3.85,5.24-4.82-1.74-.27-3.49-.45-5.24-.54l-.19-.27,.96-2.2c-1.66,.35-3.36,.69-5.05,.93-2.2,6.06-5.26,11.77-9.08,16.96l-.39,.07-4.55-2.93v-.34c3.23-3.93,5.86-8.32,7.79-13.03-2,.2-4.05,.31-6.17,.35l-.31-.24-.12-4.74,.27-.27c2.93-.08,5.67-.27,8.29-.54,.61-2.1,1.1-4.24,1.46-6.4l.35-.23,5.17,.89,.23,.34Zm-.46,25.99c-1.31,0-2.08,.81-2.08,1.47,0,.92,.85,1.54,2.23,1.54,2.2,0,3.47-.78,3.43-2.31-1.11-.56-2.35-.8-3.58-.69"/><path id="_パス_1099" class="cls-1" d="M284.42,73.1l5.44,.2,.27,.27c-.35,4.28-.46,8.09-.46,10.33-.06,2.57,.24,5.14,.89,7.64,.42,1.5,.93,2.62,1.77,2.62,1.04,0,2.35-2.08,3.24-5.63l3.86,4.86c.25,.26,.3,.65,.12,.96-1.55,4.01-4.05,6.9-7.18,6.9-2.5,0-4.7-1.77-6.24-4.89-1.59-3.79-2.35-7.88-2.24-11.99,0-3.12,.08-6.83,.27-11.03l.27-.23Zm18.28,6.71l3.7-2.97,.42-.07c4.51,3.11,8.05,7.42,10.22,12.45l-.11,.34-4.9,3.04-.39-.11c-2.08-5.32-5.01-9.53-9.02-12.34l.08-.35Z"/><path id="_パス_1100" class="cls-1" d="M352.35,100.9c-3.55,.27-7.29,.42-12.15,.42-9.25,0-13.69-2.82-13.69-8.87,0-3.51,2.89-6.86,6.98-9.75-2.03-2.96-3.91-6.02-5.63-9.18l.08-.39,4.67-2.42,.39,.12c1.67,3.08,3.5,6.08,5.47,8.98,3.67-1.83,7.45-3.45,11.3-4.85l.39,.15,2.27,5.05-.15,.31c-3.35,1.12-6.79,2.43-9.02,3.39-.63,.45-1.01,1.16-1.04,1.93-.17,1.41-1.36,2.48-2.78,2.5-.98,0-1.93-.38-2.66-1.04-3.01,1.74-4.36,3.36-4.36,5.17,0,2.58,3.28,3.16,7.82,3.16,3.97-.05,7.94-.31,11.88-.78l.31,.24,.15,5.51-.23,.35Z"/><path id="_パス_1101" class="cls-1" d="M369.76,100.05c5.59-1.16,9.1-3.59,10.1-5.98-.5,.5-1.58,.89-3.7,.89-3.55,0-5.47-1.85-5.47-4.59,0-4.59,3.55-8.71,6.94-8.71,.65-.03,1.3,.04,1.93,.19,0-.85,0-1.58-.04-2.51-4.93,.27-10.14,.73-15.58,1.35l-.31-.23-.39-4.86,.27-.34c5.36-.39,10.83-.77,16-1.04v-5.21l.23-.27h5.32l.3,.31c-.04,1.77-.08,3.35-.12,4.82,3.85-.15,7.71-.31,11.37-.35l.31,.27v4.82l-.31,.27c-3.82,0-7.67,.04-11.41,.19,0,2.12,0,4.36,.12,6.98,.52,1.51,.81,3.1,.85,4.7,.04,2.22-.52,4.4-1.62,6.32-2,3.28-5.17,5.68-8.87,6.71-.15,.03-.27,.08-.39,.12-.17,.06-.35,.08-.54,.07-.22,0-.43-.07-.62-.19l-4.39-3.74Zm8.29-13.84c-1.08,0-2.35,1.66-2.35,2.85,0,.73,.23,1.08,1.23,1.08,1.58,0,2.7-.65,2.78-2.43-.27-1.08-.89-1.5-1.66-1.5"/><path id="_パス_1102" class="cls-1" d="M410.8,77.92l-1-4.93,.23-.35c5.86-1.31,11.8-2.24,16-2.77,1.9-.04,3.48,1.45,3.55,3.35,.05,.74-.2,1.46-.69,2.01-3.12,3.08-5.28,5.05-8.48,8.21,1.49-.75,3.15-1.1,4.82-1.01,5.82,0,9.71,3.97,9.71,9.95,0,7.01-5.28,10.99-14.19,10.99-4.55,0-8.41-1.89-8.41-6.28,0-2.51,2.78-5.36,5.9-5.36,4.59,0,6.79,3.01,7.82,5.71,2.28-1.08,2.97-2.89,2.97-5.59s-2.04-4.86-5.24-4.86c-5.51,0-9.48,3.63-13.57,8.91l-.39,.04-4.13-3.32-.04-.42c5.32-6.09,10.18-11.41,15.3-16.5-2.93,.62-6.32,1.43-9.87,2.43l-.3-.2Zm7.83,18.31c-.77,0-1.47,.31-1.47,1,0,.81,.89,1.54,2.85,1.54,.41,.01,.83-.03,1.23-.11-.22-1.31-1.3-2.31-2.62-2.43"/><path id="_パス_1103" class="cls-1" d="M462.42,69.71c-.35,1.54-.77,3.05-1.12,4.44,1.35-.27,2.7-.58,4.05-.93l.34,.15,.74,3.39c4.13,.23,8.17,1.25,11.91,3.01l.12,.39-1.58,4.28-.31,.15c-.97-.48-2.04-.71-3.12-.66-2.47,0-4.59,.96-4.59,2.7,0,1.2,.58,2.97,1.7,5.74,3.01,1.27,5.83,2.93,8.4,4.94v.39l-3.24,4.16-.34,.04c-1.4-1.34-2.91-2.56-4.51-3.66-.12,3.12-3.51,5.16-7.87,5.16-5.01,0-8.1-2-8.1-6.01,0-3.62,3.09-6.17,7.21-6.17,.84-.01,1.68,.05,2.5,.2-.56-1.51-.85-3.1-.85-4.71,.08-2.08,2.04-3.85,5.24-4.82-1.74-.27-3.49-.45-5.24-.54l-.19-.27,.96-2.2c-1.66,.35-3.36,.69-5.05,.93-2.2,6.06-5.26,11.77-9.09,16.96l-.39,.07-4.55-2.93v-.34c3.23-3.93,5.86-8.32,7.79-13.03-2,.2-4.05,.31-6.17,.35l-.31-.24-.12-4.74,.27-.27c2.93-.08,5.67-.27,8.29-.54,.61-2.1,1.1-4.24,1.46-6.4l.35-.23,5.17,.89,.23,.34Zm-.46,25.99c-1.31,0-2.08,.81-2.08,1.47,0,.92,.85,1.54,2.23,1.54,2.2,0,3.47-.78,3.43-2.31-1.11-.56-2.35-.8-3.58-.69"/><path id="_パス_1104" class="cls-1" d="M492.59,78.23l4.82,.92,.23,.35c-.73,2.69-1.24,5.44-1.54,8.21,2.87-3.02,6.86-4.72,11.03-4.71,6.44,0,9.95,4.01,9.95,8.87,0,7.52-7.29,10.76-18.04,11.33-.69,0-.93-.03-1.23-.5l-3.2-4.7c10.33-.31,16.08-2.35,16.08-6.05,0-2.31-.81-4.01-4.01-4.01-3.48,0-7.75,1.93-10.88,7.4l-.38,.2-4.71-.42-.27-.35c0-5.51,.58-11,1.77-16.38l.39-.16Zm2.89-4.98l2.39-4.2,.38-.19c3.24,.83,6.37,2.03,9.33,3.58l.08,.39-2.62,4.51-.39,.08c-2.85-1.65-5.89-2.95-9.06-3.85l-.12-.31Z"/><path id="_パス_1105" class="cls-1" d="M530.28,70.6l5.24,.73,.23,.35c-.19,2.95-.69,5.87-1.5,8.71-.88,3.56-1.36,7.21-1.43,10.88-.01,.8,.06,1.6,.23,2.39,.19,.78,.42,.85,1.15,.12,.73-.74,1.38-1.55,1.93-2.43l1.15,.62c-1.5,4.28-1.81,5.86-2.01,8.48,.07,1.35-.97,2.5-2.32,2.58-.08,0-.15,0-.23,0-1.22-.09-2.33-.71-3.04-1.69-1.24-1.69-2.2-4.74-2.2-9.14,.02-4.55,.48-9.08,1.39-13.53,.62-2.58,.99-5.22,1.12-7.87l.27-.19Zm27.03,30.23c-1.16-1.4-2.46-2.66-3.89-3.78-.7,3.62-3.36,5.13-7.44,5.13s-7.71-1.73-7.71-6.01,3.85-6.13,7.37-6.13c.81-.03,1.63,.02,2.43,.15-.11-2.43-.19-5.01-.27-7.87-2.66,.19-5.48,.27-8.1,.31l-.27-.31-.12-4.7,.27-.23c2.81,0,5.48-.08,8.1-.23-.08-1.93-.08-4.05-.08-6.21l.3-.35h5.09l.31,.31c0,1.96-.04,3.9-.04,5.75,1.58-.19,3.2-.42,4.71-.66l.39,.2,.69,4.66-.23,.31c-1.58,.27-3.47,.54-5.51,.73,.04,3.47,.19,6.75,.38,9.64,2.66,1.11,5.07,2.73,7.1,4.78l-.04,.43-3.01,4.01-.43,.07Zm-11.8-6.4c-1.54,0-2.35,.61-2.35,1.42,0,.66,.57,1.31,2.43,1.31,2.08,0,2.51-.73,2.39-2.39-.79-.28-1.63-.4-2.47-.34m7.98-25.1l2.13-1,.38,.04c1.12,1.43,2.08,2.98,2.85,4.63l-.12,.39-2.16,1.04-.39-.12c-.75-1.66-1.69-3.23-2.82-4.67l.11-.31Zm4.09-1.35l2.12-1,.39,.04c1.1,1.39,2.04,2.9,2.78,4.51l-.12,.34-2.16,1.04-.39-.08c-.71-1.62-1.63-3.14-2.74-4.51l.12-.35Z"/><path id="_パス_1106" class="cls-1" d="M570.79,92.84c3.08,2.06,5.79,4.63,8.02,7.6v.31l-3.97,3.58h-.35c-2.15-3.08-4.8-5.79-7.82-8.02v-.35l3.74-3.09,.38-.03Z"/><path id="_パス_1107" class="cls-1" d="M613.42,83.36c4.05,.09,8.08-.48,11.95-1.69-.62-1.08-1.27-2.12-1.97-3.2-3.24,.82-6.57,1.29-9.91,1.43l-.31-.27-.93-4.24,.15-.31c2.68-.11,5.33-.47,7.94-1.08-.77-1.12-1.66-2.28-2.62-3.55l.04-.39,4.98-1.69,.38,.15c.97,1.27,1.85,2.58,2.78,3.89,2.11-.78,4.16-1.72,6.13-2.81l.39,.04,2.35,4.01-.04,.39c-1.94,1.02-3.93,1.94-5.97,2.74,.54,.93,1,1.62,1.81,2.93,2.05-.94,4.03-2.03,5.94-3.24l.35,.03,2.69,4.01-.12,.39c-1.96,1.23-4.4,2.5-6.17,3.39,.96,1.73,1.85,3.35,2.63,4.78,.48,.85,.73,1.8,.73,2.77-.06,1.73-1.43,3.14-3.16,3.24-.67-.04-1.31-.27-1.85-.65-1.9-1.25-4.02-2.13-6.25-2.58l.08-1.2c1.27-.12,2.47-.27,4.09-.5,.27-.04,.39-.19,.23-.5-.5-.96-1.16-2.16-1.74-3.24-4.39,1.42-9,2.05-13.61,1.85l-.27-.2-.96-4.4,.23-.31Zm-.74,13.69l3.2-3.43,.35,.03c2.7,3.01,7.21,3.78,12.18,3.78,1.31,0,2.2-.04,4.4-.23l.3,.31,.12,5.36-.31,.27c-1.89,.12-3.2,.15-4.7,.15-8.1,0-12.5-2.08-15.54-5.86v-.39Z"/><path id="_パス_1108" class="cls-1" d="M649.37,88.45c9.33-4.28,13.61-5.67,17.31-5.67,5.9,0,9.52,3.66,9.52,9.02,.09,3.95-2.28,7.54-5.94,9.02-2.79,1.08-5.71,1.79-8.68,2.12-.2,.03-.41,.04-.62,.03-.5,0-.66-.15-.93-.58l-2.5-4.24c4.82-.27,6.9-.66,9.21-1.62,2.7-1.12,3.78-2.78,3.78-5.36,0-2.32-1.5-3.51-4.09-3.51-3.08,0-6.36,1.16-14.65,5.44l-.39-.04-2.12-4.24,.07-.39Z"/><path id="_パス_1109" class="cls-1" d="M715.75,100.9c-3.55,.27-7.29,.42-12.15,.42-9.25,0-13.69-2.82-13.69-8.87,0-3.51,2.89-6.86,6.98-9.75-2.03-2.96-3.91-6.02-5.63-9.18l.08-.39,4.66-2.42,.39,.12c1.67,3.08,3.5,6.08,5.48,8.98,3.67-1.83,7.45-3.45,11.3-4.85l.39,.15,2.27,5.05-.15,.31c-3.35,1.12-6.79,2.43-9.02,3.39-.63,.45-1.01,1.16-1.04,1.93-.17,1.41-1.36,2.48-2.78,2.5-.98,0-1.93-.38-2.66-1.04-3.01,1.74-4.36,3.36-4.36,5.17,0,2.58,3.28,3.16,7.82,3.16,3.97-.05,7.94-.31,11.88-.78l.3,.24,.15,5.51-.23,.35Z"/><path id="_パス_1110" class="cls-1" d="M729.38,91.61l4.78-1.58,.31,.15c.65,4.01,2.73,4.63,9.17,4.63,4.16-.02,8.31-.34,12.42-.96l.35,.27,.54,5.79-.23,.34c-4.47,.45-8.96,.66-13.46,.62-11.53,0-13.61-4.67-14.07-8.99l.19-.27Zm4.51-18.7c2.32,.23,4.59,.34,6.86,.34,3.99-.05,7.97-.37,11.91-.96l.27,.23,.15,5.44-.31,.27c-3.99,.67-8.02,.99-12.07,.96-2.16,0-4.66-.12-6.98-.35l-.31-.27,.19-5.48,.27-.19Z"/><path id="_パス_1111" class="cls-1" d="M769.5,91.61l4.78-1.58,.31,.15c.65,4.01,2.73,4.63,9.17,4.63,4.16-.02,8.31-.34,12.41-.96l.35,.27,.54,5.79-.23,.34c-4.47,.45-8.96,.66-13.46,.62-11.53,0-13.61-4.67-14.07-8.99l.19-.27Zm4.51-18.7c2.32,.23,4.59,.34,6.86,.34,3.99-.05,7.97-.37,11.91-.96l.27,.23,.15,5.44-.31,.27c-3.99,.67-8.02,.99-12.07,.96-2.16,0-4.66-.12-6.98-.35l-.31-.27,.19-5.48,.27-.19Z"/><path id="_パス_1112" class="cls-1" d="M811.47,71.14l5.32,.73,.23,.31c-.25,2.85-.85,5.66-1.77,8.37-.85,2.91-1.33,5.92-1.42,8.95-.06,1.3,.02,2.61,.23,3.89,.12,.5,.5,.54,1.08-.04,.7-.8,1.35-1.63,1.97-2.5l1.12,.58c-1.03,2.6-1.64,5.34-1.81,8.13-.04,1.74-.89,2.82-2.66,2.85-1.54,.03-2.47-.81-3.35-2.35-.85-1.43-1.93-4.55-1.93-10.1,.14-3.96,.7-7.89,1.69-11.72,.58-2.25,.92-4.55,1.01-6.87l.31-.23Zm27.88,28.53c-3,.43-6.03,.64-9.06,.61-7.75,0-9.79-3.89-10.72-8.17l.19-.35,4.12-1.89,.35,.12c.73,3.63,2.24,4.78,7.4,4.74,2.42-.08,4.83-.35,7.21-.81l.35,.23,.35,5.17-.19,.35Zm-16.81-24.64c1.27,.04,2.5,.08,3.7,.08,3.64,0,7.28-.3,10.87-.93l.27,.24,.23,4.85-.23,.31c-3.67,.69-7.41,1.01-11.14,.96-1.23,0-2.43,0-3.66-.08l-.27-.35v-4.78l.23-.31Z"/><path id="_パス_1113" class="cls-1" d="M860,98.9c.02,3.02-2.41,5.49-5.43,5.52-3.02,.02-5.49-2.41-5.52-5.43s2.41-5.49,5.43-5.52c.01,0,.03,0,.04,0,2.96-.06,5.41,2.29,5.47,5.26,0,.06,0,.12,0,.18m-8.68,0c0,1.77,1.43,3.2,3.2,3.2s3.2-1.43,3.2-3.2-1.43-3.2-3.2-3.2c-1.74-.03-3.17,1.36-3.2,3.1,0,.03,0,.07,0,.1"/></g></g></svg>